<mxfile host="Electron" agent="Mozilla/5.0 (Windows NT 10.0; Win64; x64) AppleWebKit/537.36 (KHTML, like Gecko) draw.io/28.1.2 Chrome/138.0.7204.243 Electron/37.4.0 Safari/537.36" version="28.1.2">
  <diagram name="Seite-1" id="_koErosqbrijwyusV5Hh">
    <mxGraphModel dx="2377" dy="1402" grid="1" gridSize="10" guides="1" tooltips="1" connect="1" arrows="1" fold="1" page="1" pageScale="1" pageWidth="3300" pageHeight="4681" math="0" shadow="0">
      <root>
        <mxCell id="0" />
        <mxCell id="1" parent="0" />
        <mxCell id="nRAyySOtik3wZMy7_4Og-2" value="" style="strokeWidth=1;shadow=0;dashed=0;align=center;html=1;shape=mxgraph.mockup.containers.browserWindow;rSize=0;strokeColor=none;strokeColor2=#008cff;strokeColor3=#c4c4c4;mainText=,;recursiveResize=0;" vertex="1" parent="1">
          <mxGeometry x="40" y="30" width="1930" height="1080" as="geometry" />
        </mxCell>
        <mxCell id="nRAyySOtik3wZMy7_4Og-3" value="TaskMaster - project_name" style="strokeWidth=1;shadow=0;dashed=0;align=center;html=1;shape=mxgraph.mockup.containers.anchor;fontSize=17;fontColor=#666666;align=left;whiteSpace=wrap;" vertex="1" parent="nRAyySOtik3wZMy7_4Og-2">
          <mxGeometry x="60" y="12" width="220" height="26" as="geometry" />
        </mxCell>
        <mxCell id="nRAyySOtik3wZMy7_4Og-4" value="https://TaskMaster.com/user_name/project_name" style="strokeWidth=1;shadow=0;dashed=0;align=center;html=1;shape=mxgraph.mockup.containers.anchor;rSize=0;fontSize=17;fontColor=#666666;align=left;" vertex="1" parent="nRAyySOtik3wZMy7_4Og-2">
          <mxGeometry x="130" y="60" width="400" height="26" as="geometry" />
        </mxCell>
        <mxCell id="nRAyySOtik3wZMy7_4Og-14" value="" style="swimlane;shape=mxgraph.bootstrap.anchor;strokeColor=#999999;fillColor=#ffffff;fontColor=#666666;childLayout=stackLayout;horizontal=0;startSize=0;horizontalStack=1;resizeParent=1;resizeParentMax=0;resizeLast=0;collapsible=0;marginBottom=0;whiteSpace=wrap;html=1;" vertex="1" parent="nRAyySOtik3wZMy7_4Og-2">
          <mxGeometry x="1830" y="120" width="90" height="30" as="geometry" />
        </mxCell>
        <mxCell id="nRAyySOtik3wZMy7_4Og-529" value="" style="swimlane;startSize=0;" vertex="1" parent="nRAyySOtik3wZMy7_4Og-14">
          <mxGeometry width="30" height="30" as="geometry" />
        </mxCell>
        <mxCell id="nRAyySOtik3wZMy7_4Og-528" value="" style="sketch=0;pointerEvents=1;shadow=0;dashed=0;html=1;strokeColor=light-dark(#0080f0, #b2cbff);fillColor=#FFFFFF;labelPosition=center;verticalLabelPosition=bottom;verticalAlign=top;outlineConnect=0;align=center;shape=mxgraph.office.concepts.help;fontColor=#ffffff;" vertex="1" parent="nRAyySOtik3wZMy7_4Og-529">
          <mxGeometry x="5.5" y="5" width="19" height="20" as="geometry" />
        </mxCell>
        <mxCell id="nRAyySOtik3wZMy7_4Og-527" value="" style="swimlane;startSize=0;" vertex="1" parent="nRAyySOtik3wZMy7_4Og-14">
          <mxGeometry x="30" width="30" height="30" as="geometry" />
        </mxCell>
        <mxCell id="nRAyySOtik3wZMy7_4Og-526" value="" style="html=1;verticalLabelPosition=bottom;align=center;labelBackgroundColor=#ffffff;verticalAlign=top;strokeWidth=2;strokeColor=#0080F0;shadow=0;dashed=0;shape=mxgraph.ios7.icons.bell;" vertex="1" parent="nRAyySOtik3wZMy7_4Og-527">
          <mxGeometry x="5" y="3.450000000000003" width="20" height="23.1" as="geometry" />
        </mxCell>
        <mxCell id="nRAyySOtik3wZMy7_4Og-524" value="" style="swimlane;startSize=0;" vertex="1" parent="nRAyySOtik3wZMy7_4Og-14">
          <mxGeometry x="60" width="30" height="30" as="geometry" />
        </mxCell>
        <mxCell id="nRAyySOtik3wZMy7_4Og-525" value="HB" style="ellipse;whiteSpace=wrap;html=1;aspect=fixed;fillColor=#0000FF;strokeColor=light-dark(#FFFFFF,#FFFFFF);fontColor=#FFFFFF;" vertex="1" parent="nRAyySOtik3wZMy7_4Og-524">
          <mxGeometry x="5" y="6" width="20" height="20" as="geometry" />
        </mxCell>
        <mxCell id="nRAyySOtik3wZMy7_4Og-22" value="Search" style="strokeWidth=1;shadow=0;dashed=0;align=center;html=1;shape=mxgraph.mockup.forms.searchBox;strokeColor=#999999;mainText=;strokeColor2=#008cff;fontColor=#666666;fontSize=17;align=left;spacingLeft=3;whiteSpace=wrap;" vertex="1" parent="nRAyySOtik3wZMy7_4Og-2">
          <mxGeometry x="710" y="120" width="500" height="30" as="geometry" />
        </mxCell>
        <mxCell id="nRAyySOtik3wZMy7_4Og-23" value="Projekt TaskMaster" style="strokeWidth=1;shadow=0;dashed=0;align=center;html=1;shape=mxgraph.mockup.forms.comboBox;strokeColor=#999999;fillColor=#ddeeff;align=left;fillColor2=#aaddff;mainText=;fontColor=#666666;fontSize=17;spacingLeft=3;" vertex="1" parent="nRAyySOtik3wZMy7_4Og-2">
          <mxGeometry x="10" y="180" width="190" height="30" as="geometry" />
        </mxCell>
        <mxCell id="nRAyySOtik3wZMy7_4Og-24" value="" style="verticalLabelPosition=bottom;shadow=0;dashed=0;align=center;html=1;verticalAlign=top;strokeWidth=1;shape=mxgraph.mockup.forms.horSlider;strokeColor=#999999;sliderStyle=basic;sliderPos=0;handleStyle=circle;fillColor2=#ddeeff;" vertex="1" parent="nRAyySOtik3wZMy7_4Og-2">
          <mxGeometry x="15" y="230" width="1900" height="30" as="geometry" />
        </mxCell>
        <mxCell id="nRAyySOtik3wZMy7_4Og-25" value="" style="verticalLabelPosition=bottom;shadow=0;dashed=0;align=center;html=1;verticalAlign=top;strokeWidth=1;shape=mxgraph.mockup.forms.splitter;strokeColor=#999999;" vertex="1" parent="nRAyySOtik3wZMy7_4Og-2">
          <mxGeometry y="150" width="1930" height="30" as="geometry" />
        </mxCell>
        <mxCell id="nRAyySOtik3wZMy7_4Og-26" value="" style="verticalLabelPosition=bottom;shadow=0;dashed=0;align=center;html=1;verticalAlign=top;strokeWidth=1;shape=mxgraph.mockup.forms.splitter;strokeColor=#999999;" vertex="1" parent="nRAyySOtik3wZMy7_4Og-2">
          <mxGeometry y="210" width="1930" height="30" as="geometry" />
        </mxCell>
        <mxCell id="nRAyySOtik3wZMy7_4Og-27" value="" style="verticalLabelPosition=bottom;shadow=0;dashed=0;align=center;html=1;verticalAlign=top;strokeWidth=1;shape=mxgraph.mockup.forms.splitter;strokeColor=#999999;" vertex="1" parent="nRAyySOtik3wZMy7_4Og-2">
          <mxGeometry y="250" width="1930" height="30" as="geometry" />
        </mxCell>
        <mxCell id="nRAyySOtik3wZMy7_4Og-252" value="" style="swimlane;startSize=0;" vertex="1" parent="nRAyySOtik3wZMy7_4Og-2">
          <mxGeometry x="10" y="280" width="1910" height="720" as="geometry" />
        </mxCell>
        <mxCell id="nRAyySOtik3wZMy7_4Og-28" value="&lt;font style=&quot;color: light-dark(rgb(0, 0, 0), rgb(237, 237, 237));&quot;&gt;Vorbereitung&lt;/font&gt;" style="swimlane;strokeColor=#999999;swimlaneFillColor=#FFFFFF;fillColor=#ffffff;fontColor=#008CFF;fontStyle=0;childLayout=stackLayout;horizontal=1;startSize=30;horizontalStack=0;resizeParent=1;resizeParentMax=0;resizeLast=0;collapsible=0;marginBottom=0;whiteSpace=wrap;html=1;fontSize=17;rounded=0;glass=0;shadow=0;strokeWidth=2;align=left;" vertex="1" parent="nRAyySOtik3wZMy7_4Og-252">
          <mxGeometry x="10" y="10" width="210" height="560" as="geometry" />
        </mxCell>
        <mxCell id="nRAyySOtik3wZMy7_4Og-233" value="" style="swimlane;startSize=0;rounded=1;" vertex="1" parent="nRAyySOtik3wZMy7_4Og-28">
          <mxGeometry y="30" width="210" height="100" as="geometry">
            <mxRectangle x="170" y="900" width="210" height="40" as="alternateBounds" />
          </mxGeometry>
        </mxCell>
        <mxCell id="nRAyySOtik3wZMy7_4Og-234" value="" style="whiteSpace=wrap;html=1;aspect=fixed;" vertex="1" parent="nRAyySOtik3wZMy7_4Og-233">
          <mxGeometry x="20" y="10" width="20" height="20" as="geometry" />
        </mxCell>
        <mxCell id="nRAyySOtik3wZMy7_4Og-235" value="entity-relation-Diagramm" style="rounded=0;whiteSpace=wrap;html=1;align=left;" vertex="1" parent="nRAyySOtik3wZMy7_4Og-233">
          <mxGeometry x="50" y="10" width="150" height="20" as="geometry" />
        </mxCell>
        <mxCell id="nRAyySOtik3wZMy7_4Og-236" value="" style="rounded=0;whiteSpace=wrap;html=1;" vertex="1" parent="nRAyySOtik3wZMy7_4Og-233">
          <mxGeometry x="80" y="60" width="120" height="30" as="geometry" />
        </mxCell>
        <mxCell id="nRAyySOtik3wZMy7_4Og-237" value="" style="ellipse;whiteSpace=wrap;html=1;aspect=fixed;" vertex="1" parent="nRAyySOtik3wZMy7_4Og-233">
          <mxGeometry x="180" y="65" width="20" height="20" as="geometry" />
        </mxCell>
        <mxCell id="nRAyySOtik3wZMy7_4Og-238" value="" style="ellipse;whiteSpace=wrap;html=1;aspect=fixed;" vertex="1" parent="nRAyySOtik3wZMy7_4Og-233">
          <mxGeometry x="150" y="65" width="20" height="20" as="geometry" />
        </mxCell>
        <mxCell id="nRAyySOtik3wZMy7_4Og-239" value="" style="ellipse;whiteSpace=wrap;html=1;aspect=fixed;" vertex="1" parent="nRAyySOtik3wZMy7_4Og-233">
          <mxGeometry x="120" y="65" width="20" height="20" as="geometry" />
        </mxCell>
        <mxCell id="nRAyySOtik3wZMy7_4Og-240" value="" style="ellipse;whiteSpace=wrap;html=1;aspect=fixed;" vertex="1" parent="nRAyySOtik3wZMy7_4Og-233">
          <mxGeometry x="90" y="65" width="20" height="20" as="geometry" />
        </mxCell>
        <mxCell id="nRAyySOtik3wZMy7_4Og-241" value="" style="rounded=0;whiteSpace=wrap;html=1;" vertex="1" parent="nRAyySOtik3wZMy7_4Og-233">
          <mxGeometry x="10" y="45" width="40" height="20" as="geometry" />
        </mxCell>
        <mxCell id="nRAyySOtik3wZMy7_4Og-242" value="" style="html=1;verticalLabelPosition=bottom;align=center;labelBackgroundColor=#ffffff;verticalAlign=top;strokeWidth=2;strokeColor=#0080F0;shadow=0;dashed=0;shape=mxgraph.ios7.icons.eye;" vertex="1" parent="nRAyySOtik3wZMy7_4Og-233">
          <mxGeometry x="15" y="47.950000000000045" width="30" height="14.1" as="geometry" />
        </mxCell>
        <mxCell id="nRAyySOtik3wZMy7_4Og-520" value="" style="html=1;verticalLabelPosition=bottom;align=center;labelBackgroundColor=#ffffff;verticalAlign=top;strokeWidth=2;shadow=0;dashed=0;shape=mxgraph.ios7.icons.settings;strokeColor=#FFB570;" vertex="1" parent="nRAyySOtik3wZMy7_4Og-233">
          <mxGeometry x="22.5" y="12.5" width="15" height="15" as="geometry" />
        </mxCell>
        <mxCell id="nRAyySOtik3wZMy7_4Og-181" value="" style="swimlane;startSize=0;rounded=1;" vertex="1" parent="nRAyySOtik3wZMy7_4Og-28">
          <mxGeometry y="130" width="210" height="100" as="geometry">
            <mxRectangle y="330" width="210" height="40" as="alternateBounds" />
          </mxGeometry>
        </mxCell>
        <mxCell id="nRAyySOtik3wZMy7_4Og-182" value="" style="whiteSpace=wrap;html=1;aspect=fixed;" vertex="1" parent="nRAyySOtik3wZMy7_4Og-181">
          <mxGeometry x="20" y="10" width="20" height="20" as="geometry" />
        </mxCell>
        <mxCell id="nRAyySOtik3wZMy7_4Og-183" value="Erstellung Klassen python" style="rounded=0;whiteSpace=wrap;html=1;align=left;" vertex="1" parent="nRAyySOtik3wZMy7_4Og-181">
          <mxGeometry x="50" y="10" width="150" height="20" as="geometry" />
        </mxCell>
        <mxCell id="nRAyySOtik3wZMy7_4Og-184" value="" style="rounded=0;whiteSpace=wrap;html=1;" vertex="1" parent="nRAyySOtik3wZMy7_4Og-181">
          <mxGeometry x="80" y="60" width="120" height="30" as="geometry" />
        </mxCell>
        <mxCell id="nRAyySOtik3wZMy7_4Og-185" value="" style="ellipse;whiteSpace=wrap;html=1;aspect=fixed;" vertex="1" parent="nRAyySOtik3wZMy7_4Og-181">
          <mxGeometry x="180" y="65" width="20" height="20" as="geometry" />
        </mxCell>
        <mxCell id="nRAyySOtik3wZMy7_4Og-186" value="" style="ellipse;whiteSpace=wrap;html=1;aspect=fixed;" vertex="1" parent="nRAyySOtik3wZMy7_4Og-181">
          <mxGeometry x="150" y="65" width="20" height="20" as="geometry" />
        </mxCell>
        <mxCell id="nRAyySOtik3wZMy7_4Og-187" value="" style="ellipse;whiteSpace=wrap;html=1;aspect=fixed;" vertex="1" parent="nRAyySOtik3wZMy7_4Og-181">
          <mxGeometry x="120" y="65" width="20" height="20" as="geometry" />
        </mxCell>
        <mxCell id="nRAyySOtik3wZMy7_4Og-188" value="" style="ellipse;whiteSpace=wrap;html=1;aspect=fixed;" vertex="1" parent="nRAyySOtik3wZMy7_4Og-181">
          <mxGeometry x="90" y="65" width="20" height="20" as="geometry" />
        </mxCell>
        <mxCell id="nRAyySOtik3wZMy7_4Og-189" value="" style="rounded=0;whiteSpace=wrap;html=1;" vertex="1" parent="nRAyySOtik3wZMy7_4Og-181">
          <mxGeometry x="10" y="45" width="40" height="20" as="geometry" />
        </mxCell>
        <mxCell id="nRAyySOtik3wZMy7_4Og-190" value="" style="html=1;verticalLabelPosition=bottom;align=center;labelBackgroundColor=#ffffff;verticalAlign=top;strokeWidth=2;strokeColor=#0080F0;shadow=0;dashed=0;shape=mxgraph.ios7.icons.eye;" vertex="1" parent="nRAyySOtik3wZMy7_4Og-181">
          <mxGeometry x="15" y="47.950000000000045" width="30" height="14.1" as="geometry" />
        </mxCell>
        <mxCell id="nRAyySOtik3wZMy7_4Og-522" value="" style="shape=mxgraph.mockup.markup.redX;fillColor=#ff0000;html=1;shadow=0;whiteSpace=wrap;strokeColor=none;" vertex="1" parent="nRAyySOtik3wZMy7_4Og-181">
          <mxGeometry x="20" y="10" width="20" height="20" as="geometry" />
        </mxCell>
        <mxCell id="nRAyySOtik3wZMy7_4Og-39" value="" style="swimlane;startSize=0;rounded=1;" vertex="1" parent="nRAyySOtik3wZMy7_4Og-28">
          <mxGeometry y="230" width="210" height="100" as="geometry">
            <mxRectangle y="30" width="210" height="40" as="alternateBounds" />
          </mxGeometry>
        </mxCell>
        <mxCell id="nRAyySOtik3wZMy7_4Og-40" value="" style="whiteSpace=wrap;html=1;aspect=fixed;" vertex="1" parent="nRAyySOtik3wZMy7_4Og-39">
          <mxGeometry x="20" y="10" width="20" height="20" as="geometry" />
        </mxCell>
        <mxCell id="nRAyySOtik3wZMy7_4Og-41" value="Mockup" style="rounded=0;whiteSpace=wrap;html=1;align=left;" vertex="1" parent="nRAyySOtik3wZMy7_4Og-39">
          <mxGeometry x="50" y="10" width="150" height="20" as="geometry" />
        </mxCell>
        <mxCell id="nRAyySOtik3wZMy7_4Og-42" value="" style="rounded=0;whiteSpace=wrap;html=1;" vertex="1" parent="nRAyySOtik3wZMy7_4Og-39">
          <mxGeometry x="80" y="60" width="120" height="30" as="geometry" />
        </mxCell>
        <mxCell id="nRAyySOtik3wZMy7_4Og-43" value="" style="ellipse;whiteSpace=wrap;html=1;aspect=fixed;" vertex="1" parent="nRAyySOtik3wZMy7_4Og-39">
          <mxGeometry x="180" y="65" width="20" height="20" as="geometry" />
        </mxCell>
        <mxCell id="nRAyySOtik3wZMy7_4Og-44" value="" style="ellipse;whiteSpace=wrap;html=1;aspect=fixed;" vertex="1" parent="nRAyySOtik3wZMy7_4Og-39">
          <mxGeometry x="150" y="65" width="20" height="20" as="geometry" />
        </mxCell>
        <mxCell id="nRAyySOtik3wZMy7_4Og-141" value="" style="sketch=0;html=1;aspect=fixed;strokeColor=none;shadow=0;align=center;fillColor=#2D9C5E;verticalAlign=top;labelPosition=center;verticalLabelPosition=bottom;shape=mxgraph.gcp2.check" vertex="1" parent="nRAyySOtik3wZMy7_4Og-39">
          <mxGeometry x="20" y="12" width="20" height="16" as="geometry" />
        </mxCell>
        <mxCell id="nRAyySOtik3wZMy7_4Og-142" value="" style="rounded=0;whiteSpace=wrap;html=1;" vertex="1" parent="nRAyySOtik3wZMy7_4Og-39">
          <mxGeometry x="10" y="45" width="40" height="20" as="geometry" />
        </mxCell>
        <mxCell id="nRAyySOtik3wZMy7_4Og-143" value="" style="html=1;verticalLabelPosition=bottom;align=center;labelBackgroundColor=#ffffff;verticalAlign=top;strokeWidth=2;strokeColor=#666666;shadow=0;dashed=0;shape=mxgraph.ios7.icons.eye;fillColor=#f5f5f5;fontColor=#333333;" vertex="1" parent="nRAyySOtik3wZMy7_4Og-39">
          <mxGeometry x="15" y="47.950000000000045" width="30" height="14.1" as="geometry" />
        </mxCell>
        <mxCell id="nRAyySOtik3wZMy7_4Og-94" value="" style="swimlane;startSize=0;rounded=1;" vertex="1" parent="nRAyySOtik3wZMy7_4Og-28">
          <mxGeometry y="330" width="210" height="100" as="geometry">
            <mxRectangle y="130" width="210" height="40" as="alternateBounds" />
          </mxGeometry>
        </mxCell>
        <mxCell id="nRAyySOtik3wZMy7_4Og-95" value="" style="whiteSpace=wrap;html=1;aspect=fixed;" vertex="1" parent="nRAyySOtik3wZMy7_4Og-94">
          <mxGeometry x="20" y="10" width="20" height="20" as="geometry" />
        </mxCell>
        <mxCell id="nRAyySOtik3wZMy7_4Og-96" value="Github" style="rounded=0;whiteSpace=wrap;html=1;align=left;" vertex="1" parent="nRAyySOtik3wZMy7_4Og-94">
          <mxGeometry x="50" y="10" width="150" height="20" as="geometry" />
        </mxCell>
        <mxCell id="nRAyySOtik3wZMy7_4Og-97" value="" style="rounded=0;whiteSpace=wrap;html=1;" vertex="1" parent="nRAyySOtik3wZMy7_4Og-94">
          <mxGeometry x="80" y="60" width="120" height="30" as="geometry" />
        </mxCell>
        <mxCell id="nRAyySOtik3wZMy7_4Og-98" value="" style="ellipse;whiteSpace=wrap;html=1;aspect=fixed;" vertex="1" parent="nRAyySOtik3wZMy7_4Og-94">
          <mxGeometry x="180" y="65" width="20" height="20" as="geometry" />
        </mxCell>
        <mxCell id="nRAyySOtik3wZMy7_4Og-99" value="" style="ellipse;whiteSpace=wrap;html=1;aspect=fixed;" vertex="1" parent="nRAyySOtik3wZMy7_4Og-94">
          <mxGeometry x="150" y="65" width="20" height="20" as="geometry" />
        </mxCell>
        <mxCell id="nRAyySOtik3wZMy7_4Og-100" value="" style="ellipse;whiteSpace=wrap;html=1;aspect=fixed;" vertex="1" parent="nRAyySOtik3wZMy7_4Og-94">
          <mxGeometry x="120" y="65" width="20" height="20" as="geometry" />
        </mxCell>
        <mxCell id="nRAyySOtik3wZMy7_4Og-144" value="" style="rounded=0;whiteSpace=wrap;html=1;" vertex="1" parent="nRAyySOtik3wZMy7_4Og-94">
          <mxGeometry x="10" y="45" width="40" height="20" as="geometry" />
        </mxCell>
        <mxCell id="nRAyySOtik3wZMy7_4Og-147" value="" style="html=1;verticalLabelPosition=bottom;align=center;labelBackgroundColor=#ffffff;verticalAlign=top;strokeWidth=2;strokeColor=#0080F0;shadow=0;dashed=0;shape=mxgraph.ios7.icons.eye;" vertex="1" parent="nRAyySOtik3wZMy7_4Og-94">
          <mxGeometry x="15" y="47.950000000000045" width="30" height="14.1" as="geometry" />
        </mxCell>
        <mxCell id="nRAyySOtik3wZMy7_4Og-61" value="" style="swimlane;startSize=0;rounded=1;" vertex="1" parent="nRAyySOtik3wZMy7_4Og-28">
          <mxGeometry y="430" width="210" height="100" as="geometry">
            <mxRectangle y="230" width="210" height="40" as="alternateBounds" />
          </mxGeometry>
        </mxCell>
        <mxCell id="nRAyySOtik3wZMy7_4Og-62" value="" style="whiteSpace=wrap;html=1;aspect=fixed;" vertex="1" parent="nRAyySOtik3wZMy7_4Og-61">
          <mxGeometry x="20" y="10" width="20" height="20" as="geometry" />
        </mxCell>
        <mxCell id="nRAyySOtik3wZMy7_4Og-63" value="class-Diagramm" style="rounded=0;whiteSpace=wrap;html=1;align=left;" vertex="1" parent="nRAyySOtik3wZMy7_4Og-61">
          <mxGeometry x="50" y="10" width="150" height="20" as="geometry" />
        </mxCell>
        <mxCell id="nRAyySOtik3wZMy7_4Og-64" value="" style="rounded=0;whiteSpace=wrap;html=1;" vertex="1" parent="nRAyySOtik3wZMy7_4Og-61">
          <mxGeometry x="80" y="60" width="120" height="30" as="geometry" />
        </mxCell>
        <mxCell id="nRAyySOtik3wZMy7_4Og-65" value="" style="ellipse;whiteSpace=wrap;html=1;aspect=fixed;" vertex="1" parent="nRAyySOtik3wZMy7_4Og-61">
          <mxGeometry x="180" y="65" width="20" height="20" as="geometry" />
        </mxCell>
        <mxCell id="nRAyySOtik3wZMy7_4Og-66" value="" style="ellipse;whiteSpace=wrap;html=1;aspect=fixed;" vertex="1" parent="nRAyySOtik3wZMy7_4Og-61">
          <mxGeometry x="160" y="65" width="20" height="20" as="geometry" />
        </mxCell>
        <mxCell id="nRAyySOtik3wZMy7_4Og-67" value="" style="ellipse;whiteSpace=wrap;html=1;aspect=fixed;" vertex="1" parent="nRAyySOtik3wZMy7_4Og-61">
          <mxGeometry x="140" y="65" width="20" height="20" as="geometry" />
        </mxCell>
        <mxCell id="nRAyySOtik3wZMy7_4Og-68" value="" style="ellipse;whiteSpace=wrap;html=1;aspect=fixed;" vertex="1" parent="nRAyySOtik3wZMy7_4Og-61">
          <mxGeometry x="120" y="65" width="20" height="20" as="geometry" />
        </mxCell>
        <mxCell id="nRAyySOtik3wZMy7_4Og-69" value="" style="ellipse;whiteSpace=wrap;html=1;aspect=fixed;" vertex="1" parent="nRAyySOtik3wZMy7_4Og-61">
          <mxGeometry x="100" y="65" width="20" height="20" as="geometry" />
        </mxCell>
        <mxCell id="nRAyySOtik3wZMy7_4Og-70" value="" style="ellipse;whiteSpace=wrap;html=1;aspect=fixed;" vertex="1" parent="nRAyySOtik3wZMy7_4Og-61">
          <mxGeometry x="80" y="65" width="20" height="20" as="geometry" />
        </mxCell>
        <mxCell id="nRAyySOtik3wZMy7_4Og-145" value="" style="rounded=0;whiteSpace=wrap;html=1;" vertex="1" parent="nRAyySOtik3wZMy7_4Og-61">
          <mxGeometry x="10" y="45" width="40" height="20" as="geometry" />
        </mxCell>
        <mxCell id="nRAyySOtik3wZMy7_4Og-148" value="" style="html=1;verticalLabelPosition=bottom;align=center;labelBackgroundColor=#ffffff;verticalAlign=top;strokeWidth=2;strokeColor=#0080F0;shadow=0;dashed=0;shape=mxgraph.ios7.icons.eye;" vertex="1" parent="nRAyySOtik3wZMy7_4Og-61">
          <mxGeometry x="15" y="47.950000000000045" width="30" height="14.1" as="geometry" />
        </mxCell>
        <mxCell id="nRAyySOtik3wZMy7_4Og-83" value="" style="swimlane;startSize=0;rounded=1;" vertex="1" parent="nRAyySOtik3wZMy7_4Og-28">
          <mxGeometry y="530" width="210" height="30" as="geometry">
            <mxRectangle y="530" width="210" height="40" as="alternateBounds" />
          </mxGeometry>
        </mxCell>
        <mxCell id="nRAyySOtik3wZMy7_4Og-490" value="Neues Feld hinzufügen" style="rounded=0;whiteSpace=wrap;html=1;align=left;fontColor=light-dark(#c8c8c8, #ededed);strokeColor=light-dark(#c8c8c8, #ededed);" vertex="1" parent="nRAyySOtik3wZMy7_4Og-83">
          <mxGeometry x="50" y="5" width="150" height="20" as="geometry" />
        </mxCell>
        <mxCell id="nRAyySOtik3wZMy7_4Og-505" value="" style="html=1;verticalLabelPosition=bottom;labelBackgroundColor=#ffffff;verticalAlign=top;shadow=0;dashed=0;strokeWidth=2;shape=mxgraph.ios7.misc.add;sketch=0;fontColor=#9933FF;strokeColor=light-dark(#c8c8c8, #ff6ac1);" vertex="1" parent="nRAyySOtik3wZMy7_4Og-83">
          <mxGeometry x="20" y="4" width="20" height="21" as="geometry" />
        </mxCell>
        <mxCell id="nRAyySOtik3wZMy7_4Og-150" value="&lt;font style=&quot;color: light-dark(rgb(0, 0, 0), rgb(237, 237, 237));&quot;&gt;Durchführung I&lt;/font&gt;" style="swimlane;strokeColor=#999999;swimlaneFillColor=#FFFFFF;fillColor=#ffffff;fontColor=#008CFF;fontStyle=0;childLayout=stackLayout;horizontal=1;startSize=30;horizontalStack=0;resizeParent=1;resizeParentMax=0;resizeLast=0;collapsible=0;marginBottom=0;whiteSpace=wrap;html=1;fontSize=17;rounded=0;glass=0;shadow=0;strokeWidth=2;align=left;" vertex="1" parent="nRAyySOtik3wZMy7_4Og-252">
          <mxGeometry x="250" y="10" width="210" height="360" as="geometry" />
        </mxCell>
        <mxCell id="nRAyySOtik3wZMy7_4Og-169" value="" style="swimlane;startSize=0;rounded=1;" vertex="1" parent="nRAyySOtik3wZMy7_4Og-150">
          <mxGeometry y="30" width="210" height="100" as="geometry">
            <mxRectangle y="260" width="210" height="40" as="alternateBounds" />
          </mxGeometry>
        </mxCell>
        <mxCell id="nRAyySOtik3wZMy7_4Og-170" value="" style="whiteSpace=wrap;html=1;aspect=fixed;" vertex="1" parent="nRAyySOtik3wZMy7_4Og-169">
          <mxGeometry x="20" y="10" width="20" height="20" as="geometry" />
        </mxCell>
        <mxCell id="nRAyySOtik3wZMy7_4Og-171" value="Erstellung Klassen php" style="rounded=0;whiteSpace=wrap;html=1;align=left;" vertex="1" parent="nRAyySOtik3wZMy7_4Og-169">
          <mxGeometry x="50" y="10" width="150" height="20" as="geometry" />
        </mxCell>
        <mxCell id="nRAyySOtik3wZMy7_4Og-172" value="" style="rounded=0;whiteSpace=wrap;html=1;" vertex="1" parent="nRAyySOtik3wZMy7_4Og-169">
          <mxGeometry x="80" y="60" width="120" height="30" as="geometry" />
        </mxCell>
        <mxCell id="nRAyySOtik3wZMy7_4Og-173" value="" style="ellipse;whiteSpace=wrap;html=1;aspect=fixed;" vertex="1" parent="nRAyySOtik3wZMy7_4Og-169">
          <mxGeometry x="180" y="65" width="20" height="20" as="geometry" />
        </mxCell>
        <mxCell id="nRAyySOtik3wZMy7_4Og-174" value="" style="ellipse;whiteSpace=wrap;html=1;aspect=fixed;" vertex="1" parent="nRAyySOtik3wZMy7_4Og-169">
          <mxGeometry x="160" y="65" width="20" height="20" as="geometry" />
        </mxCell>
        <mxCell id="nRAyySOtik3wZMy7_4Og-175" value="" style="ellipse;whiteSpace=wrap;html=1;aspect=fixed;" vertex="1" parent="nRAyySOtik3wZMy7_4Og-169">
          <mxGeometry x="140" y="65" width="20" height="20" as="geometry" />
        </mxCell>
        <mxCell id="nRAyySOtik3wZMy7_4Og-176" value="" style="ellipse;whiteSpace=wrap;html=1;aspect=fixed;" vertex="1" parent="nRAyySOtik3wZMy7_4Og-169">
          <mxGeometry x="120" y="65" width="20" height="20" as="geometry" />
        </mxCell>
        <mxCell id="nRAyySOtik3wZMy7_4Og-177" value="" style="ellipse;whiteSpace=wrap;html=1;aspect=fixed;" vertex="1" parent="nRAyySOtik3wZMy7_4Og-169">
          <mxGeometry x="100" y="65" width="20" height="20" as="geometry" />
        </mxCell>
        <mxCell id="nRAyySOtik3wZMy7_4Og-178" value="" style="ellipse;whiteSpace=wrap;html=1;aspect=fixed;" vertex="1" parent="nRAyySOtik3wZMy7_4Og-169">
          <mxGeometry x="80" y="65" width="20" height="20" as="geometry" />
        </mxCell>
        <mxCell id="nRAyySOtik3wZMy7_4Og-179" value="" style="rounded=0;whiteSpace=wrap;html=1;" vertex="1" parent="nRAyySOtik3wZMy7_4Og-169">
          <mxGeometry x="10" y="45" width="40" height="20" as="geometry" />
        </mxCell>
        <mxCell id="nRAyySOtik3wZMy7_4Og-180" value="" style="html=1;verticalLabelPosition=bottom;align=center;labelBackgroundColor=#ffffff;verticalAlign=top;strokeWidth=2;strokeColor=#0080F0;shadow=0;dashed=0;shape=mxgraph.ios7.icons.eye;" vertex="1" parent="nRAyySOtik3wZMy7_4Og-169">
          <mxGeometry x="15" y="47.950000000000045" width="30" height="14.1" as="geometry" />
        </mxCell>
        <mxCell id="nRAyySOtik3wZMy7_4Og-160" value="" style="swimlane;startSize=0;rounded=1;" vertex="1" parent="nRAyySOtik3wZMy7_4Og-150">
          <mxGeometry y="130" width="210" height="100" as="geometry">
            <mxRectangle y="160" width="210" height="40" as="alternateBounds" />
          </mxGeometry>
        </mxCell>
        <mxCell id="nRAyySOtik3wZMy7_4Og-161" value="" style="whiteSpace=wrap;html=1;aspect=fixed;" vertex="1" parent="nRAyySOtik3wZMy7_4Og-160">
          <mxGeometry x="20" y="10" width="20" height="20" as="geometry" />
        </mxCell>
        <mxCell id="nRAyySOtik3wZMy7_4Og-162" value="Erstellung Datenbank" style="rounded=0;whiteSpace=wrap;html=1;align=left;" vertex="1" parent="nRAyySOtik3wZMy7_4Og-160">
          <mxGeometry x="50" y="10" width="150" height="20" as="geometry" />
        </mxCell>
        <mxCell id="nRAyySOtik3wZMy7_4Og-163" value="" style="rounded=0;whiteSpace=wrap;html=1;" vertex="1" parent="nRAyySOtik3wZMy7_4Og-160">
          <mxGeometry x="80" y="60" width="120" height="30" as="geometry" />
        </mxCell>
        <mxCell id="nRAyySOtik3wZMy7_4Og-164" value="" style="ellipse;whiteSpace=wrap;html=1;aspect=fixed;" vertex="1" parent="nRAyySOtik3wZMy7_4Og-160">
          <mxGeometry x="180" y="65" width="20" height="20" as="geometry" />
        </mxCell>
        <mxCell id="nRAyySOtik3wZMy7_4Og-165" value="" style="ellipse;whiteSpace=wrap;html=1;aspect=fixed;" vertex="1" parent="nRAyySOtik3wZMy7_4Og-160">
          <mxGeometry x="150" y="65" width="20" height="20" as="geometry" />
        </mxCell>
        <mxCell id="nRAyySOtik3wZMy7_4Og-166" value="" style="ellipse;whiteSpace=wrap;html=1;aspect=fixed;" vertex="1" parent="nRAyySOtik3wZMy7_4Og-160">
          <mxGeometry x="120" y="65" width="20" height="20" as="geometry" />
        </mxCell>
        <mxCell id="nRAyySOtik3wZMy7_4Og-167" value="" style="rounded=0;whiteSpace=wrap;html=1;" vertex="1" parent="nRAyySOtik3wZMy7_4Og-160">
          <mxGeometry x="10" y="45" width="40" height="20" as="geometry" />
        </mxCell>
        <mxCell id="nRAyySOtik3wZMy7_4Og-231" value="" style="html=1;verticalLabelPosition=bottom;align=center;labelBackgroundColor=#ffffff;verticalAlign=top;strokeWidth=2;strokeColor=#0080F0;shadow=0;dashed=0;shape=mxgraph.ios7.icons.eye;" vertex="1" parent="nRAyySOtik3wZMy7_4Og-160">
          <mxGeometry x="15" y="47.950000000000045" width="30" height="14.1" as="geometry" />
        </mxCell>
        <mxCell id="nRAyySOtik3wZMy7_4Og-151" value="" style="swimlane;startSize=0;rounded=1;" vertex="1" parent="nRAyySOtik3wZMy7_4Og-150">
          <mxGeometry y="230" width="210" height="100" as="geometry">
            <mxRectangle y="60" width="210" height="40" as="alternateBounds" />
          </mxGeometry>
        </mxCell>
        <mxCell id="nRAyySOtik3wZMy7_4Og-152" value="" style="whiteSpace=wrap;html=1;aspect=fixed;" vertex="1" parent="nRAyySOtik3wZMy7_4Og-151">
          <mxGeometry x="20" y="10" width="20" height="20" as="geometry" />
        </mxCell>
        <mxCell id="nRAyySOtik3wZMy7_4Og-153" value="Erstellung Frontend html/css" style="rounded=0;whiteSpace=wrap;html=1;align=left;" vertex="1" parent="nRAyySOtik3wZMy7_4Og-151">
          <mxGeometry x="50" y="10" width="150" height="30" as="geometry" />
        </mxCell>
        <mxCell id="nRAyySOtik3wZMy7_4Og-154" value="" style="rounded=0;whiteSpace=wrap;html=1;" vertex="1" parent="nRAyySOtik3wZMy7_4Og-151">
          <mxGeometry x="80" y="60" width="120" height="30" as="geometry" />
        </mxCell>
        <mxCell id="nRAyySOtik3wZMy7_4Og-155" value="" style="ellipse;whiteSpace=wrap;html=1;aspect=fixed;" vertex="1" parent="nRAyySOtik3wZMy7_4Og-151">
          <mxGeometry x="180" y="65" width="20" height="20" as="geometry" />
        </mxCell>
        <mxCell id="nRAyySOtik3wZMy7_4Og-156" value="" style="ellipse;whiteSpace=wrap;html=1;aspect=fixed;" vertex="1" parent="nRAyySOtik3wZMy7_4Og-151">
          <mxGeometry x="150" y="65" width="20" height="20" as="geometry" />
        </mxCell>
        <mxCell id="nRAyySOtik3wZMy7_4Og-158" value="" style="rounded=0;whiteSpace=wrap;html=1;" vertex="1" parent="nRAyySOtik3wZMy7_4Og-151">
          <mxGeometry x="10" y="45" width="40" height="20" as="geometry" />
        </mxCell>
        <mxCell id="nRAyySOtik3wZMy7_4Og-191" value="" style="html=1;verticalLabelPosition=bottom;align=center;labelBackgroundColor=#ffffff;verticalAlign=top;strokeWidth=2;strokeColor=#0080F0;shadow=0;dashed=0;shape=mxgraph.ios7.icons.eye;" vertex="1" parent="nRAyySOtik3wZMy7_4Og-151">
          <mxGeometry x="15" y="47.950000000000045" width="30" height="14.1" as="geometry" />
        </mxCell>
        <mxCell id="nRAyySOtik3wZMy7_4Og-245" value="" style="swimlane;startSize=0;rounded=1;" vertex="1" parent="nRAyySOtik3wZMy7_4Og-150">
          <mxGeometry y="330" width="210" height="30" as="geometry">
            <mxRectangle y="330" width="210" height="40" as="alternateBounds" />
          </mxGeometry>
        </mxCell>
        <mxCell id="nRAyySOtik3wZMy7_4Og-491" value="Neues Feld hinzufügen" style="rounded=0;whiteSpace=wrap;html=1;align=left;fontColor=light-dark(#c8c8c8, #ededed);strokeColor=light-dark(#c8c8c8, #ededed);" vertex="1" parent="nRAyySOtik3wZMy7_4Og-245">
          <mxGeometry x="50" y="5" width="150" height="20" as="geometry" />
        </mxCell>
        <mxCell id="nRAyySOtik3wZMy7_4Og-504" value="" style="html=1;verticalLabelPosition=bottom;labelBackgroundColor=#ffffff;verticalAlign=top;shadow=0;dashed=0;strokeWidth=2;shape=mxgraph.ios7.misc.add;sketch=0;fontColor=#9933FF;strokeColor=light-dark(#c8c8c8, #ff6ac1);" vertex="1" parent="nRAyySOtik3wZMy7_4Og-245">
          <mxGeometry x="20" y="4" width="20" height="21" as="geometry" />
        </mxCell>
        <mxCell id="nRAyySOtik3wZMy7_4Og-192" value="&lt;font style=&quot;color: rgb(0, 0, 0);&quot;&gt;Durchführung II&lt;/font&gt;" style="swimlane;strokeColor=#999999;swimlaneFillColor=#FFFFFF;fillColor=#ffffff;fontColor=#008CFF;fontStyle=0;childLayout=stackLayout;horizontal=1;startSize=30;horizontalStack=0;resizeParent=1;resizeParentMax=0;resizeLast=0;collapsible=0;marginBottom=0;whiteSpace=wrap;html=1;fontSize=17;rounded=0;glass=0;shadow=0;strokeWidth=2;align=left;" vertex="1" parent="nRAyySOtik3wZMy7_4Og-252">
          <mxGeometry x="490" y="10" width="210" height="460" as="geometry" />
        </mxCell>
        <mxCell id="nRAyySOtik3wZMy7_4Og-193" value="" style="swimlane;startSize=0;rounded=1;" vertex="1" parent="nRAyySOtik3wZMy7_4Og-192">
          <mxGeometry y="30" width="210" height="100" as="geometry">
            <mxRectangle y="360" width="210" height="40" as="alternateBounds" />
          </mxGeometry>
        </mxCell>
        <mxCell id="nRAyySOtik3wZMy7_4Og-194" value="" style="whiteSpace=wrap;html=1;aspect=fixed;" vertex="1" parent="nRAyySOtik3wZMy7_4Og-193">
          <mxGeometry x="20" y="10" width="20" height="20" as="geometry" />
        </mxCell>
        <mxCell id="nRAyySOtik3wZMy7_4Og-195" value="Verknüpfung Frontend/Backend" style="rounded=0;whiteSpace=wrap;html=1;align=left;" vertex="1" parent="nRAyySOtik3wZMy7_4Og-193">
          <mxGeometry x="50" y="10" width="150" height="30" as="geometry" />
        </mxCell>
        <mxCell id="nRAyySOtik3wZMy7_4Og-196" value="" style="rounded=0;whiteSpace=wrap;html=1;" vertex="1" parent="nRAyySOtik3wZMy7_4Og-193">
          <mxGeometry x="80" y="60" width="120" height="30" as="geometry" />
        </mxCell>
        <mxCell id="nRAyySOtik3wZMy7_4Og-197" value="" style="ellipse;whiteSpace=wrap;html=1;aspect=fixed;" vertex="1" parent="nRAyySOtik3wZMy7_4Og-193">
          <mxGeometry x="180" y="65" width="20" height="20" as="geometry" />
        </mxCell>
        <mxCell id="nRAyySOtik3wZMy7_4Og-198" value="" style="ellipse;whiteSpace=wrap;html=1;aspect=fixed;" vertex="1" parent="nRAyySOtik3wZMy7_4Og-193">
          <mxGeometry x="150" y="65" width="20" height="20" as="geometry" />
        </mxCell>
        <mxCell id="nRAyySOtik3wZMy7_4Og-199" value="" style="rounded=0;whiteSpace=wrap;html=1;" vertex="1" parent="nRAyySOtik3wZMy7_4Og-193">
          <mxGeometry x="10" y="45" width="40" height="20" as="geometry" />
        </mxCell>
        <mxCell id="nRAyySOtik3wZMy7_4Og-200" value="" style="html=1;verticalLabelPosition=bottom;align=center;labelBackgroundColor=#ffffff;verticalAlign=top;strokeWidth=2;strokeColor=#0080F0;shadow=0;dashed=0;shape=mxgraph.ios7.icons.eye;" vertex="1" parent="nRAyySOtik3wZMy7_4Og-193">
          <mxGeometry x="15" y="47.950000000000045" width="30" height="14.1" as="geometry" />
        </mxCell>
        <mxCell id="nRAyySOtik3wZMy7_4Og-201" value="" style="swimlane;startSize=0;rounded=1;" vertex="1" parent="nRAyySOtik3wZMy7_4Og-192">
          <mxGeometry y="130" width="210" height="100" as="geometry">
            <mxRectangle y="360" width="210" height="40" as="alternateBounds" />
          </mxGeometry>
        </mxCell>
        <mxCell id="nRAyySOtik3wZMy7_4Og-202" value="" style="whiteSpace=wrap;html=1;aspect=fixed;" vertex="1" parent="nRAyySOtik3wZMy7_4Og-201">
          <mxGeometry x="20" y="10" width="20" height="20" as="geometry" />
        </mxCell>
        <mxCell id="nRAyySOtik3wZMy7_4Og-203" value="Verknüpfung Backend/Datenbank" style="rounded=0;whiteSpace=wrap;html=1;align=left;" vertex="1" parent="nRAyySOtik3wZMy7_4Og-201">
          <mxGeometry x="50" y="10" width="150" height="30" as="geometry" />
        </mxCell>
        <mxCell id="nRAyySOtik3wZMy7_4Og-204" value="" style="rounded=0;whiteSpace=wrap;html=1;" vertex="1" parent="nRAyySOtik3wZMy7_4Og-201">
          <mxGeometry x="80" y="60" width="120" height="30" as="geometry" />
        </mxCell>
        <mxCell id="nRAyySOtik3wZMy7_4Og-205" value="" style="ellipse;whiteSpace=wrap;html=1;aspect=fixed;" vertex="1" parent="nRAyySOtik3wZMy7_4Og-201">
          <mxGeometry x="180" y="65" width="20" height="20" as="geometry" />
        </mxCell>
        <mxCell id="nRAyySOtik3wZMy7_4Og-206" value="" style="ellipse;whiteSpace=wrap;html=1;aspect=fixed;" vertex="1" parent="nRAyySOtik3wZMy7_4Og-201">
          <mxGeometry x="150" y="65" width="20" height="20" as="geometry" />
        </mxCell>
        <mxCell id="nRAyySOtik3wZMy7_4Og-207" value="" style="ellipse;whiteSpace=wrap;html=1;aspect=fixed;" vertex="1" parent="nRAyySOtik3wZMy7_4Og-201">
          <mxGeometry x="120" y="65" width="20" height="20" as="geometry" />
        </mxCell>
        <mxCell id="nRAyySOtik3wZMy7_4Og-208" value="" style="rounded=0;whiteSpace=wrap;html=1;" vertex="1" parent="nRAyySOtik3wZMy7_4Og-201">
          <mxGeometry x="10" y="45" width="40" height="20" as="geometry" />
        </mxCell>
        <mxCell id="nRAyySOtik3wZMy7_4Og-232" value="" style="html=1;verticalLabelPosition=bottom;align=center;labelBackgroundColor=#ffffff;verticalAlign=top;strokeWidth=2;strokeColor=#0080F0;shadow=0;dashed=0;shape=mxgraph.ios7.icons.eye;" vertex="1" parent="nRAyySOtik3wZMy7_4Og-201">
          <mxGeometry x="15" y="47.950000000000045" width="30" height="14.1" as="geometry" />
        </mxCell>
        <mxCell id="nRAyySOtik3wZMy7_4Og-209" value="" style="swimlane;startSize=0;rounded=1;" vertex="1" parent="nRAyySOtik3wZMy7_4Og-192">
          <mxGeometry y="230" width="210" height="100" as="geometry">
            <mxRectangle y="360" width="210" height="40" as="alternateBounds" />
          </mxGeometry>
        </mxCell>
        <mxCell id="nRAyySOtik3wZMy7_4Og-210" value="" style="whiteSpace=wrap;html=1;aspect=fixed;" vertex="1" parent="nRAyySOtik3wZMy7_4Og-209">
          <mxGeometry x="20" y="10" width="20" height="20" as="geometry" />
        </mxCell>
        <mxCell id="nRAyySOtik3wZMy7_4Og-211" value="Verknüpfung php/python" style="rounded=0;whiteSpace=wrap;html=1;align=left;" vertex="1" parent="nRAyySOtik3wZMy7_4Og-209">
          <mxGeometry x="50" y="10" width="150" height="20" as="geometry" />
        </mxCell>
        <mxCell id="nRAyySOtik3wZMy7_4Og-212" value="" style="rounded=0;whiteSpace=wrap;html=1;" vertex="1" parent="nRAyySOtik3wZMy7_4Og-209">
          <mxGeometry x="80" y="60" width="120" height="30" as="geometry" />
        </mxCell>
        <mxCell id="nRAyySOtik3wZMy7_4Og-213" value="" style="ellipse;whiteSpace=wrap;html=1;aspect=fixed;" vertex="1" parent="nRAyySOtik3wZMy7_4Og-209">
          <mxGeometry x="180" y="65" width="20" height="20" as="geometry" />
        </mxCell>
        <mxCell id="nRAyySOtik3wZMy7_4Og-214" value="" style="ellipse;whiteSpace=wrap;html=1;aspect=fixed;" vertex="1" parent="nRAyySOtik3wZMy7_4Og-209">
          <mxGeometry x="160" y="65" width="20" height="20" as="geometry" />
        </mxCell>
        <mxCell id="nRAyySOtik3wZMy7_4Og-215" value="" style="ellipse;whiteSpace=wrap;html=1;aspect=fixed;" vertex="1" parent="nRAyySOtik3wZMy7_4Og-209">
          <mxGeometry x="140" y="65" width="20" height="20" as="geometry" />
        </mxCell>
        <mxCell id="nRAyySOtik3wZMy7_4Og-216" value="" style="ellipse;whiteSpace=wrap;html=1;aspect=fixed;" vertex="1" parent="nRAyySOtik3wZMy7_4Og-209">
          <mxGeometry x="120" y="65" width="20" height="20" as="geometry" />
        </mxCell>
        <mxCell id="nRAyySOtik3wZMy7_4Og-217" value="" style="ellipse;whiteSpace=wrap;html=1;aspect=fixed;" vertex="1" parent="nRAyySOtik3wZMy7_4Og-209">
          <mxGeometry x="100" y="65" width="20" height="20" as="geometry" />
        </mxCell>
        <mxCell id="nRAyySOtik3wZMy7_4Og-218" value="" style="ellipse;whiteSpace=wrap;html=1;aspect=fixed;" vertex="1" parent="nRAyySOtik3wZMy7_4Og-209">
          <mxGeometry x="80" y="65" width="20" height="20" as="geometry" />
        </mxCell>
        <mxCell id="nRAyySOtik3wZMy7_4Og-219" value="" style="rounded=0;whiteSpace=wrap;html=1;" vertex="1" parent="nRAyySOtik3wZMy7_4Og-209">
          <mxGeometry x="10" y="45" width="40" height="20" as="geometry" />
        </mxCell>
        <mxCell id="nRAyySOtik3wZMy7_4Og-220" value="" style="html=1;verticalLabelPosition=bottom;align=center;labelBackgroundColor=#ffffff;verticalAlign=top;strokeWidth=2;strokeColor=#0080F0;shadow=0;dashed=0;shape=mxgraph.ios7.icons.eye;" vertex="1" parent="nRAyySOtik3wZMy7_4Og-209">
          <mxGeometry x="15" y="47.950000000000045" width="30" height="14.1" as="geometry" />
        </mxCell>
        <mxCell id="nRAyySOtik3wZMy7_4Og-221" value="" style="swimlane;startSize=0;rounded=1;" vertex="1" parent="nRAyySOtik3wZMy7_4Og-192">
          <mxGeometry y="330" width="210" height="100" as="geometry">
            <mxRectangle y="360" width="210" height="40" as="alternateBounds" />
          </mxGeometry>
        </mxCell>
        <mxCell id="nRAyySOtik3wZMy7_4Og-222" value="" style="whiteSpace=wrap;html=1;aspect=fixed;" vertex="1" parent="nRAyySOtik3wZMy7_4Og-221">
          <mxGeometry x="20" y="10" width="20" height="20" as="geometry" />
        </mxCell>
        <mxCell id="nRAyySOtik3wZMy7_4Og-223" value="Erstellung Klassen python" style="rounded=0;whiteSpace=wrap;html=1;align=left;" vertex="1" parent="nRAyySOtik3wZMy7_4Og-221">
          <mxGeometry x="50" y="10" width="150" height="20" as="geometry" />
        </mxCell>
        <mxCell id="nRAyySOtik3wZMy7_4Og-224" value="" style="rounded=0;whiteSpace=wrap;html=1;" vertex="1" parent="nRAyySOtik3wZMy7_4Og-221">
          <mxGeometry x="80" y="60" width="120" height="30" as="geometry" />
        </mxCell>
        <mxCell id="nRAyySOtik3wZMy7_4Og-225" value="" style="ellipse;whiteSpace=wrap;html=1;aspect=fixed;" vertex="1" parent="nRAyySOtik3wZMy7_4Og-221">
          <mxGeometry x="180" y="65" width="20" height="20" as="geometry" />
        </mxCell>
        <mxCell id="nRAyySOtik3wZMy7_4Og-226" value="" style="ellipse;whiteSpace=wrap;html=1;aspect=fixed;" vertex="1" parent="nRAyySOtik3wZMy7_4Og-221">
          <mxGeometry x="150" y="65" width="20" height="20" as="geometry" />
        </mxCell>
        <mxCell id="nRAyySOtik3wZMy7_4Og-227" value="" style="ellipse;whiteSpace=wrap;html=1;aspect=fixed;" vertex="1" parent="nRAyySOtik3wZMy7_4Og-221">
          <mxGeometry x="120" y="65" width="20" height="20" as="geometry" />
        </mxCell>
        <mxCell id="nRAyySOtik3wZMy7_4Og-228" value="" style="ellipse;whiteSpace=wrap;html=1;aspect=fixed;" vertex="1" parent="nRAyySOtik3wZMy7_4Og-221">
          <mxGeometry x="90" y="65" width="20" height="20" as="geometry" />
        </mxCell>
        <mxCell id="nRAyySOtik3wZMy7_4Og-229" value="" style="rounded=0;whiteSpace=wrap;html=1;" vertex="1" parent="nRAyySOtik3wZMy7_4Og-221">
          <mxGeometry x="10" y="45" width="40" height="20" as="geometry" />
        </mxCell>
        <mxCell id="nRAyySOtik3wZMy7_4Og-230" value="" style="html=1;verticalLabelPosition=bottom;align=center;labelBackgroundColor=#ffffff;verticalAlign=top;strokeWidth=2;strokeColor=#0080F0;shadow=0;dashed=0;shape=mxgraph.ios7.icons.eye;" vertex="1" parent="nRAyySOtik3wZMy7_4Og-221">
          <mxGeometry x="15" y="47.950000000000045" width="30" height="14.1" as="geometry" />
        </mxCell>
        <mxCell id="nRAyySOtik3wZMy7_4Og-248" value="" style="swimlane;startSize=0;rounded=1;" vertex="1" parent="nRAyySOtik3wZMy7_4Og-192">
          <mxGeometry y="430" width="210" height="30" as="geometry">
            <mxRectangle x="640" y="560" width="210" height="40" as="alternateBounds" />
          </mxGeometry>
        </mxCell>
        <mxCell id="nRAyySOtik3wZMy7_4Og-492" value="Neues Feld hinzufügen" style="rounded=0;whiteSpace=wrap;html=1;align=left;fontColor=light-dark(#c8c8c8, #ededed);strokeColor=light-dark(#c8c8c8, #ededed);" vertex="1" parent="nRAyySOtik3wZMy7_4Og-248">
          <mxGeometry x="50" y="5" width="150" height="20" as="geometry" />
        </mxCell>
        <mxCell id="nRAyySOtik3wZMy7_4Og-503" value="" style="html=1;verticalLabelPosition=bottom;labelBackgroundColor=#ffffff;verticalAlign=top;shadow=0;dashed=0;strokeWidth=2;shape=mxgraph.ios7.misc.add;sketch=0;fontColor=#9933FF;strokeColor=light-dark(#c8c8c8, #ff6ac1);" vertex="1" parent="nRAyySOtik3wZMy7_4Og-248">
          <mxGeometry x="20" y="5" width="20" height="21" as="geometry" />
        </mxCell>
        <mxCell id="nRAyySOtik3wZMy7_4Og-253" value="&lt;font style=&quot;color: rgb(0, 0, 0);&quot;&gt;Vorbereitung&lt;/font&gt;" style="swimlane;strokeColor=#999999;swimlaneFillColor=#FFFFFF;fillColor=#ffffff;fontColor=#008CFF;fontStyle=0;childLayout=stackLayout;horizontal=1;startSize=30;horizontalStack=0;resizeParent=1;resizeParentMax=0;resizeLast=0;collapsible=0;marginBottom=0;whiteSpace=wrap;html=1;fontSize=17;rounded=0;glass=0;shadow=0;strokeWidth=2;align=left;" vertex="1" parent="nRAyySOtik3wZMy7_4Og-252">
          <mxGeometry x="730" y="10" width="210" height="700" as="geometry" />
        </mxCell>
        <mxCell id="nRAyySOtik3wZMy7_4Og-317" value="" style="swimlane;startSize=0;rounded=1;" vertex="1" parent="nRAyySOtik3wZMy7_4Og-253">
          <mxGeometry y="30" width="210" height="100" as="geometry">
            <mxRectangle y="230" width="210" height="40" as="alternateBounds" />
          </mxGeometry>
        </mxCell>
        <mxCell id="nRAyySOtik3wZMy7_4Og-318" value="" style="whiteSpace=wrap;html=1;aspect=fixed;" vertex="1" parent="nRAyySOtik3wZMy7_4Og-317">
          <mxGeometry x="20" y="10" width="20" height="20" as="geometry" />
        </mxCell>
        <mxCell id="nRAyySOtik3wZMy7_4Og-319" value="Erstellung Klassen python" style="rounded=0;whiteSpace=wrap;html=1;align=left;" vertex="1" parent="nRAyySOtik3wZMy7_4Og-317">
          <mxGeometry x="50" y="10" width="150" height="20" as="geometry" />
        </mxCell>
        <mxCell id="nRAyySOtik3wZMy7_4Og-320" value="" style="rounded=0;whiteSpace=wrap;html=1;" vertex="1" parent="nRAyySOtik3wZMy7_4Og-317">
          <mxGeometry x="80" y="60" width="120" height="30" as="geometry" />
        </mxCell>
        <mxCell id="nRAyySOtik3wZMy7_4Og-321" value="" style="ellipse;whiteSpace=wrap;html=1;aspect=fixed;" vertex="1" parent="nRAyySOtik3wZMy7_4Og-317">
          <mxGeometry x="180" y="65" width="20" height="20" as="geometry" />
        </mxCell>
        <mxCell id="nRAyySOtik3wZMy7_4Og-322" value="" style="ellipse;whiteSpace=wrap;html=1;aspect=fixed;" vertex="1" parent="nRAyySOtik3wZMy7_4Og-317">
          <mxGeometry x="150" y="65" width="20" height="20" as="geometry" />
        </mxCell>
        <mxCell id="nRAyySOtik3wZMy7_4Og-323" value="" style="ellipse;whiteSpace=wrap;html=1;aspect=fixed;" vertex="1" parent="nRAyySOtik3wZMy7_4Og-317">
          <mxGeometry x="120" y="65" width="20" height="20" as="geometry" />
        </mxCell>
        <mxCell id="nRAyySOtik3wZMy7_4Og-324" value="" style="ellipse;whiteSpace=wrap;html=1;aspect=fixed;" vertex="1" parent="nRAyySOtik3wZMy7_4Og-317">
          <mxGeometry x="90" y="65" width="20" height="20" as="geometry" />
        </mxCell>
        <mxCell id="nRAyySOtik3wZMy7_4Og-325" value="" style="rounded=0;whiteSpace=wrap;html=1;" vertex="1" parent="nRAyySOtik3wZMy7_4Og-317">
          <mxGeometry x="10" y="45" width="40" height="20" as="geometry" />
        </mxCell>
        <mxCell id="nRAyySOtik3wZMy7_4Og-326" value="" style="html=1;verticalLabelPosition=bottom;align=center;labelBackgroundColor=#ffffff;verticalAlign=top;strokeWidth=2;strokeColor=#0080F0;shadow=0;dashed=0;shape=mxgraph.ios7.icons.eye;" vertex="1" parent="nRAyySOtik3wZMy7_4Og-317">
          <mxGeometry x="15" y="47.950000000000045" width="30" height="14.1" as="geometry" />
        </mxCell>
        <mxCell id="nRAyySOtik3wZMy7_4Og-308" value="" style="swimlane;startSize=0;rounded=1;" vertex="1" parent="nRAyySOtik3wZMy7_4Og-253">
          <mxGeometry y="130" width="210" height="100" as="geometry">
            <mxRectangle x="1080" y="560" width="210" height="40" as="alternateBounds" />
          </mxGeometry>
        </mxCell>
        <mxCell id="nRAyySOtik3wZMy7_4Og-309" value="" style="whiteSpace=wrap;html=1;aspect=fixed;" vertex="1" parent="nRAyySOtik3wZMy7_4Og-308">
          <mxGeometry x="20" y="10" width="20" height="20" as="geometry" />
        </mxCell>
        <mxCell id="nRAyySOtik3wZMy7_4Og-310" value="Github" style="rounded=0;whiteSpace=wrap;html=1;align=left;" vertex="1" parent="nRAyySOtik3wZMy7_4Og-308">
          <mxGeometry x="50" y="10" width="150" height="20" as="geometry" />
        </mxCell>
        <mxCell id="nRAyySOtik3wZMy7_4Og-311" value="" style="rounded=0;whiteSpace=wrap;html=1;" vertex="1" parent="nRAyySOtik3wZMy7_4Og-308">
          <mxGeometry x="80" y="60" width="120" height="30" as="geometry" />
        </mxCell>
        <mxCell id="nRAyySOtik3wZMy7_4Og-312" value="" style="ellipse;whiteSpace=wrap;html=1;aspect=fixed;" vertex="1" parent="nRAyySOtik3wZMy7_4Og-308">
          <mxGeometry x="180" y="65" width="20" height="20" as="geometry" />
        </mxCell>
        <mxCell id="nRAyySOtik3wZMy7_4Og-313" value="" style="ellipse;whiteSpace=wrap;html=1;aspect=fixed;" vertex="1" parent="nRAyySOtik3wZMy7_4Og-308">
          <mxGeometry x="150" y="65" width="20" height="20" as="geometry" />
        </mxCell>
        <mxCell id="nRAyySOtik3wZMy7_4Og-314" value="" style="ellipse;whiteSpace=wrap;html=1;aspect=fixed;" vertex="1" parent="nRAyySOtik3wZMy7_4Og-308">
          <mxGeometry x="120" y="65" width="20" height="20" as="geometry" />
        </mxCell>
        <mxCell id="nRAyySOtik3wZMy7_4Og-315" value="" style="rounded=0;whiteSpace=wrap;html=1;" vertex="1" parent="nRAyySOtik3wZMy7_4Og-308">
          <mxGeometry x="10" y="45" width="40" height="20" as="geometry" />
        </mxCell>
        <mxCell id="nRAyySOtik3wZMy7_4Og-316" value="" style="html=1;verticalLabelPosition=bottom;align=center;labelBackgroundColor=#ffffff;verticalAlign=top;strokeWidth=2;strokeColor=#0080F0;shadow=0;dashed=0;shape=mxgraph.ios7.icons.eye;" vertex="1" parent="nRAyySOtik3wZMy7_4Og-308">
          <mxGeometry x="15" y="47.950000000000045" width="30" height="14.1" as="geometry" />
        </mxCell>
        <mxCell id="nRAyySOtik3wZMy7_4Og-254" value="" style="swimlane;startSize=0;rounded=1;" vertex="1" parent="nRAyySOtik3wZMy7_4Og-253">
          <mxGeometry y="230" width="210" height="100" as="geometry">
            <mxRectangle x="170" y="900" width="210" height="40" as="alternateBounds" />
          </mxGeometry>
        </mxCell>
        <mxCell id="nRAyySOtik3wZMy7_4Og-255" value="" style="whiteSpace=wrap;html=1;aspect=fixed;" vertex="1" parent="nRAyySOtik3wZMy7_4Og-254">
          <mxGeometry x="20" y="10" width="20" height="20" as="geometry" />
        </mxCell>
        <mxCell id="nRAyySOtik3wZMy7_4Og-256" value="entity-relation-Diagramm" style="rounded=0;whiteSpace=wrap;html=1;align=left;" vertex="1" parent="nRAyySOtik3wZMy7_4Og-254">
          <mxGeometry x="50" y="10" width="150" height="20" as="geometry" />
        </mxCell>
        <mxCell id="nRAyySOtik3wZMy7_4Og-257" value="" style="rounded=0;whiteSpace=wrap;html=1;" vertex="1" parent="nRAyySOtik3wZMy7_4Og-254">
          <mxGeometry x="80" y="60" width="120" height="30" as="geometry" />
        </mxCell>
        <mxCell id="nRAyySOtik3wZMy7_4Og-258" value="" style="ellipse;whiteSpace=wrap;html=1;aspect=fixed;" vertex="1" parent="nRAyySOtik3wZMy7_4Og-254">
          <mxGeometry x="180" y="65" width="20" height="20" as="geometry" />
        </mxCell>
        <mxCell id="nRAyySOtik3wZMy7_4Og-259" value="" style="ellipse;whiteSpace=wrap;html=1;aspect=fixed;" vertex="1" parent="nRAyySOtik3wZMy7_4Og-254">
          <mxGeometry x="150" y="65" width="20" height="20" as="geometry" />
        </mxCell>
        <mxCell id="nRAyySOtik3wZMy7_4Og-260" value="" style="ellipse;whiteSpace=wrap;html=1;aspect=fixed;" vertex="1" parent="nRAyySOtik3wZMy7_4Og-254">
          <mxGeometry x="120" y="65" width="20" height="20" as="geometry" />
        </mxCell>
        <mxCell id="nRAyySOtik3wZMy7_4Og-261" value="" style="ellipse;whiteSpace=wrap;html=1;aspect=fixed;" vertex="1" parent="nRAyySOtik3wZMy7_4Og-254">
          <mxGeometry x="90" y="65" width="20" height="20" as="geometry" />
        </mxCell>
        <mxCell id="nRAyySOtik3wZMy7_4Og-262" value="" style="rounded=0;whiteSpace=wrap;html=1;" vertex="1" parent="nRAyySOtik3wZMy7_4Og-254">
          <mxGeometry x="10" y="45" width="40" height="20" as="geometry" />
        </mxCell>
        <mxCell id="nRAyySOtik3wZMy7_4Og-263" value="" style="html=1;verticalLabelPosition=bottom;align=center;labelBackgroundColor=#ffffff;verticalAlign=top;strokeWidth=2;strokeColor=#0080F0;shadow=0;dashed=0;shape=mxgraph.ios7.icons.eye;" vertex="1" parent="nRAyySOtik3wZMy7_4Og-254">
          <mxGeometry x="15" y="47.950000000000045" width="30" height="14.1" as="geometry" />
        </mxCell>
        <mxCell id="nRAyySOtik3wZMy7_4Og-264" value="" style="swimlane;startSize=0;rounded=1;" vertex="1" parent="nRAyySOtik3wZMy7_4Og-253">
          <mxGeometry y="330" width="210" height="100" as="geometry">
            <mxRectangle y="230" width="210" height="40" as="alternateBounds" />
          </mxGeometry>
        </mxCell>
        <mxCell id="nRAyySOtik3wZMy7_4Og-265" value="" style="whiteSpace=wrap;html=1;aspect=fixed;" vertex="1" parent="nRAyySOtik3wZMy7_4Og-264">
          <mxGeometry x="20" y="10" width="20" height="20" as="geometry" />
        </mxCell>
        <mxCell id="nRAyySOtik3wZMy7_4Og-266" value="Erstellung Klassen python" style="rounded=0;whiteSpace=wrap;html=1;align=left;" vertex="1" parent="nRAyySOtik3wZMy7_4Og-264">
          <mxGeometry x="50" y="10" width="150" height="20" as="geometry" />
        </mxCell>
        <mxCell id="nRAyySOtik3wZMy7_4Og-267" value="" style="rounded=0;whiteSpace=wrap;html=1;" vertex="1" parent="nRAyySOtik3wZMy7_4Og-264">
          <mxGeometry x="80" y="60" width="120" height="30" as="geometry" />
        </mxCell>
        <mxCell id="nRAyySOtik3wZMy7_4Og-268" value="" style="ellipse;whiteSpace=wrap;html=1;aspect=fixed;" vertex="1" parent="nRAyySOtik3wZMy7_4Og-264">
          <mxGeometry x="180" y="65" width="20" height="20" as="geometry" />
        </mxCell>
        <mxCell id="nRAyySOtik3wZMy7_4Og-269" value="" style="ellipse;whiteSpace=wrap;html=1;aspect=fixed;" vertex="1" parent="nRAyySOtik3wZMy7_4Og-264">
          <mxGeometry x="150" y="65" width="20" height="20" as="geometry" />
        </mxCell>
        <mxCell id="nRAyySOtik3wZMy7_4Og-270" value="" style="ellipse;whiteSpace=wrap;html=1;aspect=fixed;" vertex="1" parent="nRAyySOtik3wZMy7_4Og-264">
          <mxGeometry x="120" y="65" width="20" height="20" as="geometry" />
        </mxCell>
        <mxCell id="nRAyySOtik3wZMy7_4Og-271" value="" style="ellipse;whiteSpace=wrap;html=1;aspect=fixed;" vertex="1" parent="nRAyySOtik3wZMy7_4Og-264">
          <mxGeometry x="90" y="65" width="20" height="20" as="geometry" />
        </mxCell>
        <mxCell id="nRAyySOtik3wZMy7_4Og-272" value="" style="rounded=0;whiteSpace=wrap;html=1;" vertex="1" parent="nRAyySOtik3wZMy7_4Og-264">
          <mxGeometry x="10" y="45" width="40" height="20" as="geometry" />
        </mxCell>
        <mxCell id="nRAyySOtik3wZMy7_4Og-273" value="" style="html=1;verticalLabelPosition=bottom;align=center;labelBackgroundColor=#ffffff;verticalAlign=top;strokeWidth=2;strokeColor=#0080F0;shadow=0;dashed=0;shape=mxgraph.ios7.icons.eye;" vertex="1" parent="nRAyySOtik3wZMy7_4Og-264">
          <mxGeometry x="15" y="47.950000000000045" width="30" height="14.1" as="geometry" />
        </mxCell>
        <mxCell id="nRAyySOtik3wZMy7_4Og-274" value="" style="swimlane;startSize=0;rounded=1;" vertex="1" parent="nRAyySOtik3wZMy7_4Og-253">
          <mxGeometry y="430" width="210" height="100" as="geometry">
            <mxRectangle y="30" width="210" height="40" as="alternateBounds" />
          </mxGeometry>
        </mxCell>
        <mxCell id="nRAyySOtik3wZMy7_4Og-275" value="" style="whiteSpace=wrap;html=1;aspect=fixed;" vertex="1" parent="nRAyySOtik3wZMy7_4Og-274">
          <mxGeometry x="20" y="10" width="20" height="20" as="geometry" />
        </mxCell>
        <mxCell id="nRAyySOtik3wZMy7_4Og-276" value="Mockup" style="rounded=0;whiteSpace=wrap;html=1;align=left;" vertex="1" parent="nRAyySOtik3wZMy7_4Og-274">
          <mxGeometry x="50" y="10" width="150" height="20" as="geometry" />
        </mxCell>
        <mxCell id="nRAyySOtik3wZMy7_4Og-277" value="" style="rounded=0;whiteSpace=wrap;html=1;" vertex="1" parent="nRAyySOtik3wZMy7_4Og-274">
          <mxGeometry x="80" y="60" width="120" height="30" as="geometry" />
        </mxCell>
        <mxCell id="nRAyySOtik3wZMy7_4Og-278" value="" style="ellipse;whiteSpace=wrap;html=1;aspect=fixed;" vertex="1" parent="nRAyySOtik3wZMy7_4Og-274">
          <mxGeometry x="180" y="65" width="20" height="20" as="geometry" />
        </mxCell>
        <mxCell id="nRAyySOtik3wZMy7_4Og-279" value="" style="ellipse;whiteSpace=wrap;html=1;aspect=fixed;" vertex="1" parent="nRAyySOtik3wZMy7_4Og-274">
          <mxGeometry x="150" y="65" width="20" height="20" as="geometry" />
        </mxCell>
        <mxCell id="nRAyySOtik3wZMy7_4Og-281" value="" style="rounded=0;whiteSpace=wrap;html=1;" vertex="1" parent="nRAyySOtik3wZMy7_4Og-274">
          <mxGeometry x="10" y="45" width="40" height="20" as="geometry" />
        </mxCell>
        <mxCell id="nRAyySOtik3wZMy7_4Og-307" value="" style="html=1;verticalLabelPosition=bottom;align=center;labelBackgroundColor=#ffffff;verticalAlign=top;strokeWidth=2;strokeColor=#0080F0;shadow=0;dashed=0;shape=mxgraph.ios7.icons.eye;" vertex="1" parent="nRAyySOtik3wZMy7_4Og-274">
          <mxGeometry x="15" y="47.950000000000045" width="30" height="14.1" as="geometry" />
        </mxCell>
        <mxCell id="nRAyySOtik3wZMy7_4Og-283" value="" style="swimlane;startSize=0;rounded=1;" vertex="1" parent="nRAyySOtik3wZMy7_4Og-253">
          <mxGeometry y="530" width="210" height="100" as="geometry">
            <mxRectangle y="330" width="210" height="40" as="alternateBounds" />
          </mxGeometry>
        </mxCell>
        <mxCell id="nRAyySOtik3wZMy7_4Og-284" value="" style="whiteSpace=wrap;html=1;aspect=fixed;" vertex="1" parent="nRAyySOtik3wZMy7_4Og-283">
          <mxGeometry x="20" y="10" width="20" height="20" as="geometry" />
        </mxCell>
        <mxCell id="nRAyySOtik3wZMy7_4Og-285" value="Github" style="rounded=0;whiteSpace=wrap;html=1;align=left;" vertex="1" parent="nRAyySOtik3wZMy7_4Og-283">
          <mxGeometry x="50" y="10" width="150" height="20" as="geometry" />
        </mxCell>
        <mxCell id="nRAyySOtik3wZMy7_4Og-286" value="" style="rounded=0;whiteSpace=wrap;html=1;" vertex="1" parent="nRAyySOtik3wZMy7_4Og-283">
          <mxGeometry x="80" y="60" width="120" height="30" as="geometry" />
        </mxCell>
        <mxCell id="nRAyySOtik3wZMy7_4Og-287" value="" style="ellipse;whiteSpace=wrap;html=1;aspect=fixed;" vertex="1" parent="nRAyySOtik3wZMy7_4Og-283">
          <mxGeometry x="180" y="65" width="20" height="20" as="geometry" />
        </mxCell>
        <mxCell id="nRAyySOtik3wZMy7_4Og-288" value="" style="ellipse;whiteSpace=wrap;html=1;aspect=fixed;" vertex="1" parent="nRAyySOtik3wZMy7_4Og-283">
          <mxGeometry x="150" y="65" width="20" height="20" as="geometry" />
        </mxCell>
        <mxCell id="nRAyySOtik3wZMy7_4Og-289" value="" style="ellipse;whiteSpace=wrap;html=1;aspect=fixed;" vertex="1" parent="nRAyySOtik3wZMy7_4Og-283">
          <mxGeometry x="120" y="65" width="20" height="20" as="geometry" />
        </mxCell>
        <mxCell id="nRAyySOtik3wZMy7_4Og-290" value="" style="rounded=0;whiteSpace=wrap;html=1;" vertex="1" parent="nRAyySOtik3wZMy7_4Og-283">
          <mxGeometry x="10" y="45" width="40" height="20" as="geometry" />
        </mxCell>
        <mxCell id="nRAyySOtik3wZMy7_4Og-291" value="" style="html=1;verticalLabelPosition=bottom;align=center;labelBackgroundColor=#ffffff;verticalAlign=top;strokeWidth=2;strokeColor=#0080F0;shadow=0;dashed=0;shape=mxgraph.ios7.icons.eye;" vertex="1" parent="nRAyySOtik3wZMy7_4Og-283">
          <mxGeometry x="15" y="47.950000000000045" width="30" height="14.1" as="geometry" />
        </mxCell>
        <mxCell id="nRAyySOtik3wZMy7_4Og-292" value="" style="swimlane;startSize=0;rounded=1;" vertex="1" collapsed="1" parent="nRAyySOtik3wZMy7_4Og-253">
          <mxGeometry y="630" width="210" height="40" as="geometry">
            <mxRectangle y="630" width="210" height="100" as="alternateBounds" />
          </mxGeometry>
        </mxCell>
        <mxCell id="nRAyySOtik3wZMy7_4Og-293" value="" style="whiteSpace=wrap;html=1;aspect=fixed;" vertex="1" parent="nRAyySOtik3wZMy7_4Og-292">
          <mxGeometry x="20" y="10" width="20" height="20" as="geometry" />
        </mxCell>
        <mxCell id="nRAyySOtik3wZMy7_4Og-294" value="class-Diagramm" style="rounded=0;whiteSpace=wrap;html=1;align=left;" vertex="1" parent="nRAyySOtik3wZMy7_4Og-292">
          <mxGeometry x="50" y="10" width="150" height="20" as="geometry" />
        </mxCell>
        <mxCell id="nRAyySOtik3wZMy7_4Og-295" value="" style="rounded=0;whiteSpace=wrap;html=1;" vertex="1" parent="nRAyySOtik3wZMy7_4Og-292">
          <mxGeometry x="80" y="60" width="120" height="30" as="geometry" />
        </mxCell>
        <mxCell id="nRAyySOtik3wZMy7_4Og-296" value="" style="ellipse;whiteSpace=wrap;html=1;aspect=fixed;" vertex="1" parent="nRAyySOtik3wZMy7_4Og-292">
          <mxGeometry x="180" y="65" width="20" height="20" as="geometry" />
        </mxCell>
        <mxCell id="nRAyySOtik3wZMy7_4Og-297" value="" style="ellipse;whiteSpace=wrap;html=1;aspect=fixed;" vertex="1" parent="nRAyySOtik3wZMy7_4Og-292">
          <mxGeometry x="160" y="65" width="20" height="20" as="geometry" />
        </mxCell>
        <mxCell id="nRAyySOtik3wZMy7_4Og-298" value="" style="ellipse;whiteSpace=wrap;html=1;aspect=fixed;" vertex="1" parent="nRAyySOtik3wZMy7_4Og-292">
          <mxGeometry x="140" y="65" width="20" height="20" as="geometry" />
        </mxCell>
        <mxCell id="nRAyySOtik3wZMy7_4Og-299" value="" style="ellipse;whiteSpace=wrap;html=1;aspect=fixed;" vertex="1" parent="nRAyySOtik3wZMy7_4Og-292">
          <mxGeometry x="120" y="65" width="20" height="20" as="geometry" />
        </mxCell>
        <mxCell id="nRAyySOtik3wZMy7_4Og-300" value="" style="ellipse;whiteSpace=wrap;html=1;aspect=fixed;" vertex="1" parent="nRAyySOtik3wZMy7_4Og-292">
          <mxGeometry x="100" y="65" width="20" height="20" as="geometry" />
        </mxCell>
        <mxCell id="nRAyySOtik3wZMy7_4Og-301" value="" style="ellipse;whiteSpace=wrap;html=1;aspect=fixed;" vertex="1" parent="nRAyySOtik3wZMy7_4Og-292">
          <mxGeometry x="80" y="65" width="20" height="20" as="geometry" />
        </mxCell>
        <mxCell id="nRAyySOtik3wZMy7_4Og-302" value="" style="rounded=0;whiteSpace=wrap;html=1;" vertex="1" parent="nRAyySOtik3wZMy7_4Og-292">
          <mxGeometry x="10" y="45" width="40" height="20" as="geometry" />
        </mxCell>
        <mxCell id="nRAyySOtik3wZMy7_4Og-303" value="" style="html=1;verticalLabelPosition=bottom;align=center;labelBackgroundColor=#ffffff;verticalAlign=top;strokeWidth=2;strokeColor=#0080F0;shadow=0;dashed=0;shape=mxgraph.ios7.icons.eye;" vertex="1" parent="nRAyySOtik3wZMy7_4Og-292">
          <mxGeometry x="15" y="47.950000000000045" width="30" height="14.1" as="geometry" />
        </mxCell>
        <mxCell id="nRAyySOtik3wZMy7_4Og-304" value="" style="swimlane;startSize=0;rounded=1;" vertex="1" parent="nRAyySOtik3wZMy7_4Og-253">
          <mxGeometry y="670" width="210" height="30" as="geometry">
            <mxRectangle y="530" width="210" height="40" as="alternateBounds" />
          </mxGeometry>
        </mxCell>
        <mxCell id="nRAyySOtik3wZMy7_4Og-306" value="Neues Feld hinzufügen" style="rounded=0;whiteSpace=wrap;html=1;align=left;fontColor=light-dark(#c8c8c8, #ededed);strokeColor=light-dark(#c8c8c8, #ededed);" vertex="1" parent="nRAyySOtik3wZMy7_4Og-304">
          <mxGeometry x="50" y="5" width="150" height="20" as="geometry" />
        </mxCell>
        <mxCell id="nRAyySOtik3wZMy7_4Og-502" value="" style="html=1;verticalLabelPosition=bottom;labelBackgroundColor=#ffffff;verticalAlign=top;shadow=0;dashed=0;strokeWidth=2;shape=mxgraph.ios7.misc.add;sketch=0;fontColor=#9933FF;strokeColor=light-dark(#c8c8c8, #ff6ac1);" vertex="1" parent="nRAyySOtik3wZMy7_4Og-304">
          <mxGeometry x="20" y="5" width="20" height="21" as="geometry" />
        </mxCell>
        <mxCell id="nRAyySOtik3wZMy7_4Og-327" value="&lt;font style=&quot;color: rgb(0, 0, 0);&quot;&gt;Durchführung I&lt;/font&gt;" style="swimlane;strokeColor=#999999;swimlaneFillColor=#FFFFFF;fillColor=#ffffff;fontColor=#008CFF;fontStyle=0;childLayout=stackLayout;horizontal=1;startSize=30;horizontalStack=0;resizeParent=1;resizeParentMax=0;resizeLast=0;collapsible=0;marginBottom=0;whiteSpace=wrap;html=1;fontSize=17;rounded=0;glass=0;shadow=0;strokeWidth=2;align=left;" vertex="1" parent="nRAyySOtik3wZMy7_4Og-252">
          <mxGeometry x="970" y="10" width="210" height="360" as="geometry" />
        </mxCell>
        <mxCell id="nRAyySOtik3wZMy7_4Og-328" value="" style="swimlane;startSize=0;rounded=1;" vertex="1" parent="nRAyySOtik3wZMy7_4Og-327">
          <mxGeometry y="30" width="210" height="100" as="geometry">
            <mxRectangle y="260" width="210" height="40" as="alternateBounds" />
          </mxGeometry>
        </mxCell>
        <mxCell id="nRAyySOtik3wZMy7_4Og-329" value="" style="whiteSpace=wrap;html=1;aspect=fixed;" vertex="1" parent="nRAyySOtik3wZMy7_4Og-328">
          <mxGeometry x="20" y="10" width="20" height="20" as="geometry" />
        </mxCell>
        <mxCell id="nRAyySOtik3wZMy7_4Og-330" value="Erstellung Klassen php" style="rounded=0;whiteSpace=wrap;html=1;align=left;" vertex="1" parent="nRAyySOtik3wZMy7_4Og-328">
          <mxGeometry x="50" y="10" width="150" height="20" as="geometry" />
        </mxCell>
        <mxCell id="nRAyySOtik3wZMy7_4Og-331" value="" style="rounded=0;whiteSpace=wrap;html=1;" vertex="1" parent="nRAyySOtik3wZMy7_4Og-328">
          <mxGeometry x="80" y="60" width="120" height="30" as="geometry" />
        </mxCell>
        <mxCell id="nRAyySOtik3wZMy7_4Og-332" value="" style="ellipse;whiteSpace=wrap;html=1;aspect=fixed;" vertex="1" parent="nRAyySOtik3wZMy7_4Og-328">
          <mxGeometry x="180" y="65" width="20" height="20" as="geometry" />
        </mxCell>
        <mxCell id="nRAyySOtik3wZMy7_4Og-333" value="" style="ellipse;whiteSpace=wrap;html=1;aspect=fixed;" vertex="1" parent="nRAyySOtik3wZMy7_4Og-328">
          <mxGeometry x="160" y="65" width="20" height="20" as="geometry" />
        </mxCell>
        <mxCell id="nRAyySOtik3wZMy7_4Og-334" value="" style="ellipse;whiteSpace=wrap;html=1;aspect=fixed;" vertex="1" parent="nRAyySOtik3wZMy7_4Og-328">
          <mxGeometry x="140" y="65" width="20" height="20" as="geometry" />
        </mxCell>
        <mxCell id="nRAyySOtik3wZMy7_4Og-335" value="" style="ellipse;whiteSpace=wrap;html=1;aspect=fixed;" vertex="1" parent="nRAyySOtik3wZMy7_4Og-328">
          <mxGeometry x="120" y="65" width="20" height="20" as="geometry" />
        </mxCell>
        <mxCell id="nRAyySOtik3wZMy7_4Og-336" value="" style="ellipse;whiteSpace=wrap;html=1;aspect=fixed;" vertex="1" parent="nRAyySOtik3wZMy7_4Og-328">
          <mxGeometry x="100" y="65" width="20" height="20" as="geometry" />
        </mxCell>
        <mxCell id="nRAyySOtik3wZMy7_4Og-337" value="" style="ellipse;whiteSpace=wrap;html=1;aspect=fixed;" vertex="1" parent="nRAyySOtik3wZMy7_4Og-328">
          <mxGeometry x="80" y="65" width="20" height="20" as="geometry" />
        </mxCell>
        <mxCell id="nRAyySOtik3wZMy7_4Og-338" value="" style="rounded=0;whiteSpace=wrap;html=1;" vertex="1" parent="nRAyySOtik3wZMy7_4Og-328">
          <mxGeometry x="10" y="45" width="40" height="20" as="geometry" />
        </mxCell>
        <mxCell id="nRAyySOtik3wZMy7_4Og-339" value="" style="html=1;verticalLabelPosition=bottom;align=center;labelBackgroundColor=#ffffff;verticalAlign=top;strokeWidth=2;strokeColor=#0080F0;shadow=0;dashed=0;shape=mxgraph.ios7.icons.eye;" vertex="1" parent="nRAyySOtik3wZMy7_4Og-328">
          <mxGeometry x="15" y="47.950000000000045" width="30" height="14.1" as="geometry" />
        </mxCell>
        <mxCell id="nRAyySOtik3wZMy7_4Og-340" value="" style="swimlane;startSize=0;rounded=1;" vertex="1" parent="nRAyySOtik3wZMy7_4Og-327">
          <mxGeometry y="130" width="210" height="100" as="geometry">
            <mxRectangle y="160" width="210" height="40" as="alternateBounds" />
          </mxGeometry>
        </mxCell>
        <mxCell id="nRAyySOtik3wZMy7_4Og-341" value="" style="whiteSpace=wrap;html=1;aspect=fixed;" vertex="1" parent="nRAyySOtik3wZMy7_4Og-340">
          <mxGeometry x="20" y="10" width="20" height="20" as="geometry" />
        </mxCell>
        <mxCell id="nRAyySOtik3wZMy7_4Og-342" value="Erstellung Datenbank" style="rounded=0;whiteSpace=wrap;html=1;align=left;" vertex="1" parent="nRAyySOtik3wZMy7_4Og-340">
          <mxGeometry x="50" y="10" width="150" height="20" as="geometry" />
        </mxCell>
        <mxCell id="nRAyySOtik3wZMy7_4Og-343" value="" style="rounded=0;whiteSpace=wrap;html=1;" vertex="1" parent="nRAyySOtik3wZMy7_4Og-340">
          <mxGeometry x="80" y="60" width="120" height="30" as="geometry" />
        </mxCell>
        <mxCell id="nRAyySOtik3wZMy7_4Og-344" value="" style="ellipse;whiteSpace=wrap;html=1;aspect=fixed;" vertex="1" parent="nRAyySOtik3wZMy7_4Og-340">
          <mxGeometry x="180" y="65" width="20" height="20" as="geometry" />
        </mxCell>
        <mxCell id="nRAyySOtik3wZMy7_4Og-345" value="" style="ellipse;whiteSpace=wrap;html=1;aspect=fixed;" vertex="1" parent="nRAyySOtik3wZMy7_4Og-340">
          <mxGeometry x="150" y="65" width="20" height="20" as="geometry" />
        </mxCell>
        <mxCell id="nRAyySOtik3wZMy7_4Og-346" value="" style="ellipse;whiteSpace=wrap;html=1;aspect=fixed;" vertex="1" parent="nRAyySOtik3wZMy7_4Og-340">
          <mxGeometry x="120" y="65" width="20" height="20" as="geometry" />
        </mxCell>
        <mxCell id="nRAyySOtik3wZMy7_4Og-347" value="" style="rounded=0;whiteSpace=wrap;html=1;" vertex="1" parent="nRAyySOtik3wZMy7_4Og-340">
          <mxGeometry x="10" y="45" width="40" height="20" as="geometry" />
        </mxCell>
        <mxCell id="nRAyySOtik3wZMy7_4Og-348" value="" style="html=1;verticalLabelPosition=bottom;align=center;labelBackgroundColor=#ffffff;verticalAlign=top;strokeWidth=2;strokeColor=#0080F0;shadow=0;dashed=0;shape=mxgraph.ios7.icons.eye;" vertex="1" parent="nRAyySOtik3wZMy7_4Og-340">
          <mxGeometry x="15" y="47.950000000000045" width="30" height="14.1" as="geometry" />
        </mxCell>
        <mxCell id="nRAyySOtik3wZMy7_4Og-349" value="" style="swimlane;startSize=0;rounded=1;" vertex="1" parent="nRAyySOtik3wZMy7_4Og-327">
          <mxGeometry y="230" width="210" height="100" as="geometry">
            <mxRectangle y="60" width="210" height="40" as="alternateBounds" />
          </mxGeometry>
        </mxCell>
        <mxCell id="nRAyySOtik3wZMy7_4Og-350" value="" style="whiteSpace=wrap;html=1;aspect=fixed;" vertex="1" parent="nRAyySOtik3wZMy7_4Og-349">
          <mxGeometry x="20" y="10" width="20" height="20" as="geometry" />
        </mxCell>
        <mxCell id="nRAyySOtik3wZMy7_4Og-351" value="Erstellung Frontend html/css" style="rounded=0;whiteSpace=wrap;html=1;align=left;" vertex="1" parent="nRAyySOtik3wZMy7_4Og-349">
          <mxGeometry x="50" y="10" width="150" height="30" as="geometry" />
        </mxCell>
        <mxCell id="nRAyySOtik3wZMy7_4Og-352" value="" style="rounded=0;whiteSpace=wrap;html=1;" vertex="1" parent="nRAyySOtik3wZMy7_4Og-349">
          <mxGeometry x="80" y="60" width="120" height="30" as="geometry" />
        </mxCell>
        <mxCell id="nRAyySOtik3wZMy7_4Og-353" value="" style="ellipse;whiteSpace=wrap;html=1;aspect=fixed;" vertex="1" parent="nRAyySOtik3wZMy7_4Og-349">
          <mxGeometry x="180" y="65" width="20" height="20" as="geometry" />
        </mxCell>
        <mxCell id="nRAyySOtik3wZMy7_4Og-354" value="" style="ellipse;whiteSpace=wrap;html=1;aspect=fixed;" vertex="1" parent="nRAyySOtik3wZMy7_4Og-349">
          <mxGeometry x="150" y="65" width="20" height="20" as="geometry" />
        </mxCell>
        <mxCell id="nRAyySOtik3wZMy7_4Og-355" value="" style="rounded=0;whiteSpace=wrap;html=1;" vertex="1" parent="nRAyySOtik3wZMy7_4Og-349">
          <mxGeometry x="10" y="45" width="40" height="20" as="geometry" />
        </mxCell>
        <mxCell id="nRAyySOtik3wZMy7_4Og-356" value="" style="html=1;verticalLabelPosition=bottom;align=center;labelBackgroundColor=#ffffff;verticalAlign=top;strokeWidth=2;strokeColor=#0080F0;shadow=0;dashed=0;shape=mxgraph.ios7.icons.eye;" vertex="1" parent="nRAyySOtik3wZMy7_4Og-349">
          <mxGeometry x="15" y="47.950000000000045" width="30" height="14.1" as="geometry" />
        </mxCell>
        <mxCell id="nRAyySOtik3wZMy7_4Og-357" value="" style="swimlane;startSize=0;rounded=1;" vertex="1" parent="nRAyySOtik3wZMy7_4Og-327">
          <mxGeometry y="330" width="210" height="30" as="geometry">
            <mxRectangle y="330" width="210" height="40" as="alternateBounds" />
          </mxGeometry>
        </mxCell>
        <mxCell id="nRAyySOtik3wZMy7_4Og-493" value="Neues Feld hinzufügen" style="rounded=0;whiteSpace=wrap;html=1;align=left;fontColor=light-dark(#c8c8c8, #ededed);strokeColor=light-dark(#c8c8c8, #ededed);" vertex="1" parent="nRAyySOtik3wZMy7_4Og-357">
          <mxGeometry x="50" y="4.5" width="150" height="20" as="geometry" />
        </mxCell>
        <mxCell id="nRAyySOtik3wZMy7_4Og-501" value="" style="html=1;verticalLabelPosition=bottom;labelBackgroundColor=#ffffff;verticalAlign=top;shadow=0;dashed=0;strokeWidth=2;shape=mxgraph.ios7.misc.add;sketch=0;fontColor=#9933FF;strokeColor=light-dark(#c8c8c8, #ff6ac1);" vertex="1" parent="nRAyySOtik3wZMy7_4Og-357">
          <mxGeometry x="20" y="5" width="20" height="21" as="geometry" />
        </mxCell>
        <mxCell id="nRAyySOtik3wZMy7_4Og-360" value="&lt;font style=&quot;color: rgb(0, 0, 0);&quot;&gt;Durchführung II&lt;/font&gt;" style="swimlane;strokeColor=#999999;swimlaneFillColor=#FFFFFF;fillColor=#ffffff;fontColor=#008CFF;fontStyle=0;childLayout=stackLayout;horizontal=1;startSize=30;horizontalStack=0;resizeParent=1;resizeParentMax=0;resizeLast=0;collapsible=0;marginBottom=0;whiteSpace=wrap;html=1;fontSize=17;rounded=0;glass=0;shadow=0;strokeWidth=2;align=left;" vertex="1" parent="nRAyySOtik3wZMy7_4Og-252">
          <mxGeometry x="1210" y="10" width="210" height="460" as="geometry" />
        </mxCell>
        <mxCell id="nRAyySOtik3wZMy7_4Og-361" value="" style="swimlane;startSize=0;rounded=1;" vertex="1" parent="nRAyySOtik3wZMy7_4Og-360">
          <mxGeometry y="30" width="210" height="100" as="geometry">
            <mxRectangle y="360" width="210" height="40" as="alternateBounds" />
          </mxGeometry>
        </mxCell>
        <mxCell id="nRAyySOtik3wZMy7_4Og-362" value="" style="whiteSpace=wrap;html=1;aspect=fixed;" vertex="1" parent="nRAyySOtik3wZMy7_4Og-361">
          <mxGeometry x="20" y="10" width="20" height="20" as="geometry" />
        </mxCell>
        <mxCell id="nRAyySOtik3wZMy7_4Og-363" value="Verknüpfung Frontend/Backend" style="rounded=0;whiteSpace=wrap;html=1;align=left;" vertex="1" parent="nRAyySOtik3wZMy7_4Og-361">
          <mxGeometry x="50" y="10" width="150" height="30" as="geometry" />
        </mxCell>
        <mxCell id="nRAyySOtik3wZMy7_4Og-364" value="" style="rounded=0;whiteSpace=wrap;html=1;" vertex="1" parent="nRAyySOtik3wZMy7_4Og-361">
          <mxGeometry x="80" y="60" width="120" height="30" as="geometry" />
        </mxCell>
        <mxCell id="nRAyySOtik3wZMy7_4Og-365" value="" style="ellipse;whiteSpace=wrap;html=1;aspect=fixed;" vertex="1" parent="nRAyySOtik3wZMy7_4Og-361">
          <mxGeometry x="180" y="65" width="20" height="20" as="geometry" />
        </mxCell>
        <mxCell id="nRAyySOtik3wZMy7_4Og-366" value="" style="ellipse;whiteSpace=wrap;html=1;aspect=fixed;" vertex="1" parent="nRAyySOtik3wZMy7_4Og-361">
          <mxGeometry x="150" y="65" width="20" height="20" as="geometry" />
        </mxCell>
        <mxCell id="nRAyySOtik3wZMy7_4Og-367" value="" style="rounded=0;whiteSpace=wrap;html=1;" vertex="1" parent="nRAyySOtik3wZMy7_4Og-361">
          <mxGeometry x="10" y="45" width="40" height="20" as="geometry" />
        </mxCell>
        <mxCell id="nRAyySOtik3wZMy7_4Og-368" value="" style="html=1;verticalLabelPosition=bottom;align=center;labelBackgroundColor=#ffffff;verticalAlign=top;strokeWidth=2;strokeColor=#0080F0;shadow=0;dashed=0;shape=mxgraph.ios7.icons.eye;" vertex="1" parent="nRAyySOtik3wZMy7_4Og-361">
          <mxGeometry x="15" y="47.950000000000045" width="30" height="14.1" as="geometry" />
        </mxCell>
        <mxCell id="nRAyySOtik3wZMy7_4Og-369" value="" style="swimlane;startSize=0;rounded=1;" vertex="1" parent="nRAyySOtik3wZMy7_4Og-360">
          <mxGeometry y="130" width="210" height="100" as="geometry">
            <mxRectangle y="360" width="210" height="40" as="alternateBounds" />
          </mxGeometry>
        </mxCell>
        <mxCell id="nRAyySOtik3wZMy7_4Og-370" value="" style="whiteSpace=wrap;html=1;aspect=fixed;" vertex="1" parent="nRAyySOtik3wZMy7_4Og-369">
          <mxGeometry x="20" y="10" width="20" height="20" as="geometry" />
        </mxCell>
        <mxCell id="nRAyySOtik3wZMy7_4Og-371" value="Verknüpfung Backend/Datenbank" style="rounded=0;whiteSpace=wrap;html=1;align=left;" vertex="1" parent="nRAyySOtik3wZMy7_4Og-369">
          <mxGeometry x="50" y="10" width="150" height="30" as="geometry" />
        </mxCell>
        <mxCell id="nRAyySOtik3wZMy7_4Og-372" value="" style="rounded=0;whiteSpace=wrap;html=1;" vertex="1" parent="nRAyySOtik3wZMy7_4Og-369">
          <mxGeometry x="80" y="60" width="120" height="30" as="geometry" />
        </mxCell>
        <mxCell id="nRAyySOtik3wZMy7_4Og-373" value="" style="ellipse;whiteSpace=wrap;html=1;aspect=fixed;" vertex="1" parent="nRAyySOtik3wZMy7_4Og-369">
          <mxGeometry x="180" y="65" width="20" height="20" as="geometry" />
        </mxCell>
        <mxCell id="nRAyySOtik3wZMy7_4Og-374" value="" style="ellipse;whiteSpace=wrap;html=1;aspect=fixed;" vertex="1" parent="nRAyySOtik3wZMy7_4Og-369">
          <mxGeometry x="150" y="65" width="20" height="20" as="geometry" />
        </mxCell>
        <mxCell id="nRAyySOtik3wZMy7_4Og-375" value="" style="ellipse;whiteSpace=wrap;html=1;aspect=fixed;" vertex="1" parent="nRAyySOtik3wZMy7_4Og-369">
          <mxGeometry x="120" y="65" width="20" height="20" as="geometry" />
        </mxCell>
        <mxCell id="nRAyySOtik3wZMy7_4Og-376" value="" style="rounded=0;whiteSpace=wrap;html=1;" vertex="1" parent="nRAyySOtik3wZMy7_4Og-369">
          <mxGeometry x="10" y="45" width="40" height="20" as="geometry" />
        </mxCell>
        <mxCell id="nRAyySOtik3wZMy7_4Og-377" value="" style="html=1;verticalLabelPosition=bottom;align=center;labelBackgroundColor=#ffffff;verticalAlign=top;strokeWidth=2;strokeColor=#0080F0;shadow=0;dashed=0;shape=mxgraph.ios7.icons.eye;" vertex="1" parent="nRAyySOtik3wZMy7_4Og-369">
          <mxGeometry x="15" y="47.950000000000045" width="30" height="14.1" as="geometry" />
        </mxCell>
        <mxCell id="nRAyySOtik3wZMy7_4Og-378" value="" style="swimlane;startSize=0;rounded=1;" vertex="1" parent="nRAyySOtik3wZMy7_4Og-360">
          <mxGeometry y="230" width="210" height="100" as="geometry">
            <mxRectangle y="360" width="210" height="40" as="alternateBounds" />
          </mxGeometry>
        </mxCell>
        <mxCell id="nRAyySOtik3wZMy7_4Og-379" value="" style="whiteSpace=wrap;html=1;aspect=fixed;" vertex="1" parent="nRAyySOtik3wZMy7_4Og-378">
          <mxGeometry x="20" y="10" width="20" height="20" as="geometry" />
        </mxCell>
        <mxCell id="nRAyySOtik3wZMy7_4Og-380" value="Verknüpfung php/python" style="rounded=0;whiteSpace=wrap;html=1;align=left;" vertex="1" parent="nRAyySOtik3wZMy7_4Og-378">
          <mxGeometry x="50" y="10" width="150" height="20" as="geometry" />
        </mxCell>
        <mxCell id="nRAyySOtik3wZMy7_4Og-381" value="" style="rounded=0;whiteSpace=wrap;html=1;" vertex="1" parent="nRAyySOtik3wZMy7_4Og-378">
          <mxGeometry x="80" y="60" width="120" height="30" as="geometry" />
        </mxCell>
        <mxCell id="nRAyySOtik3wZMy7_4Og-382" value="" style="ellipse;whiteSpace=wrap;html=1;aspect=fixed;" vertex="1" parent="nRAyySOtik3wZMy7_4Og-378">
          <mxGeometry x="180" y="65" width="20" height="20" as="geometry" />
        </mxCell>
        <mxCell id="nRAyySOtik3wZMy7_4Og-383" value="" style="ellipse;whiteSpace=wrap;html=1;aspect=fixed;" vertex="1" parent="nRAyySOtik3wZMy7_4Og-378">
          <mxGeometry x="160" y="65" width="20" height="20" as="geometry" />
        </mxCell>
        <mxCell id="nRAyySOtik3wZMy7_4Og-384" value="" style="ellipse;whiteSpace=wrap;html=1;aspect=fixed;" vertex="1" parent="nRAyySOtik3wZMy7_4Og-378">
          <mxGeometry x="140" y="65" width="20" height="20" as="geometry" />
        </mxCell>
        <mxCell id="nRAyySOtik3wZMy7_4Og-385" value="" style="ellipse;whiteSpace=wrap;html=1;aspect=fixed;" vertex="1" parent="nRAyySOtik3wZMy7_4Og-378">
          <mxGeometry x="120" y="65" width="20" height="20" as="geometry" />
        </mxCell>
        <mxCell id="nRAyySOtik3wZMy7_4Og-386" value="" style="ellipse;whiteSpace=wrap;html=1;aspect=fixed;" vertex="1" parent="nRAyySOtik3wZMy7_4Og-378">
          <mxGeometry x="100" y="65" width="20" height="20" as="geometry" />
        </mxCell>
        <mxCell id="nRAyySOtik3wZMy7_4Og-387" value="" style="ellipse;whiteSpace=wrap;html=1;aspect=fixed;" vertex="1" parent="nRAyySOtik3wZMy7_4Og-378">
          <mxGeometry x="80" y="65" width="20" height="20" as="geometry" />
        </mxCell>
        <mxCell id="nRAyySOtik3wZMy7_4Og-388" value="" style="rounded=0;whiteSpace=wrap;html=1;" vertex="1" parent="nRAyySOtik3wZMy7_4Og-378">
          <mxGeometry x="10" y="45" width="40" height="20" as="geometry" />
        </mxCell>
        <mxCell id="nRAyySOtik3wZMy7_4Og-389" value="" style="html=1;verticalLabelPosition=bottom;align=center;labelBackgroundColor=#ffffff;verticalAlign=top;strokeWidth=2;strokeColor=#0080F0;shadow=0;dashed=0;shape=mxgraph.ios7.icons.eye;" vertex="1" parent="nRAyySOtik3wZMy7_4Og-378">
          <mxGeometry x="15" y="47.950000000000045" width="30" height="14.1" as="geometry" />
        </mxCell>
        <mxCell id="nRAyySOtik3wZMy7_4Og-390" value="" style="swimlane;startSize=0;rounded=1;" vertex="1" parent="nRAyySOtik3wZMy7_4Og-360">
          <mxGeometry y="330" width="210" height="100" as="geometry">
            <mxRectangle y="360" width="210" height="40" as="alternateBounds" />
          </mxGeometry>
        </mxCell>
        <mxCell id="nRAyySOtik3wZMy7_4Og-391" value="" style="whiteSpace=wrap;html=1;aspect=fixed;" vertex="1" parent="nRAyySOtik3wZMy7_4Og-390">
          <mxGeometry x="20" y="10" width="20" height="20" as="geometry" />
        </mxCell>
        <mxCell id="nRAyySOtik3wZMy7_4Og-392" value="Erstellung Klassen python" style="rounded=0;whiteSpace=wrap;html=1;align=left;" vertex="1" parent="nRAyySOtik3wZMy7_4Og-390">
          <mxGeometry x="50" y="10" width="150" height="20" as="geometry" />
        </mxCell>
        <mxCell id="nRAyySOtik3wZMy7_4Og-393" value="" style="rounded=0;whiteSpace=wrap;html=1;" vertex="1" parent="nRAyySOtik3wZMy7_4Og-390">
          <mxGeometry x="80" y="60" width="120" height="30" as="geometry" />
        </mxCell>
        <mxCell id="nRAyySOtik3wZMy7_4Og-394" value="" style="ellipse;whiteSpace=wrap;html=1;aspect=fixed;" vertex="1" parent="nRAyySOtik3wZMy7_4Og-390">
          <mxGeometry x="180" y="65" width="20" height="20" as="geometry" />
        </mxCell>
        <mxCell id="nRAyySOtik3wZMy7_4Og-395" value="" style="ellipse;whiteSpace=wrap;html=1;aspect=fixed;" vertex="1" parent="nRAyySOtik3wZMy7_4Og-390">
          <mxGeometry x="150" y="65" width="20" height="20" as="geometry" />
        </mxCell>
        <mxCell id="nRAyySOtik3wZMy7_4Og-396" value="" style="ellipse;whiteSpace=wrap;html=1;aspect=fixed;" vertex="1" parent="nRAyySOtik3wZMy7_4Og-390">
          <mxGeometry x="120" y="65" width="20" height="20" as="geometry" />
        </mxCell>
        <mxCell id="nRAyySOtik3wZMy7_4Og-397" value="" style="ellipse;whiteSpace=wrap;html=1;aspect=fixed;" vertex="1" parent="nRAyySOtik3wZMy7_4Og-390">
          <mxGeometry x="90" y="65" width="20" height="20" as="geometry" />
        </mxCell>
        <mxCell id="nRAyySOtik3wZMy7_4Og-398" value="" style="rounded=0;whiteSpace=wrap;html=1;" vertex="1" parent="nRAyySOtik3wZMy7_4Og-390">
          <mxGeometry x="10" y="45" width="40" height="20" as="geometry" />
        </mxCell>
        <mxCell id="nRAyySOtik3wZMy7_4Og-399" value="" style="html=1;verticalLabelPosition=bottom;align=center;labelBackgroundColor=#ffffff;verticalAlign=top;strokeWidth=2;strokeColor=#0080F0;shadow=0;dashed=0;shape=mxgraph.ios7.icons.eye;" vertex="1" parent="nRAyySOtik3wZMy7_4Og-390">
          <mxGeometry x="15" y="47.950000000000045" width="30" height="14.1" as="geometry" />
        </mxCell>
        <mxCell id="nRAyySOtik3wZMy7_4Og-400" value="" style="swimlane;startSize=0;rounded=1;" vertex="1" parent="nRAyySOtik3wZMy7_4Og-360">
          <mxGeometry y="430" width="210" height="30" as="geometry">
            <mxRectangle x="640" y="560" width="210" height="40" as="alternateBounds" />
          </mxGeometry>
        </mxCell>
        <mxCell id="nRAyySOtik3wZMy7_4Og-494" value="Neues Feld hinzufügen" style="rounded=0;whiteSpace=wrap;html=1;align=left;fontColor=light-dark(#c8c8c8, #ededed);strokeColor=light-dark(#c8c8c8, #ededed);" vertex="1" parent="nRAyySOtik3wZMy7_4Og-400">
          <mxGeometry x="50" y="5" width="150" height="20" as="geometry" />
        </mxCell>
        <mxCell id="nRAyySOtik3wZMy7_4Og-500" value="" style="html=1;verticalLabelPosition=bottom;labelBackgroundColor=#ffffff;verticalAlign=top;shadow=0;dashed=0;strokeWidth=2;shape=mxgraph.ios7.misc.add;sketch=0;fontColor=#9933FF;strokeColor=light-dark(#c8c8c8, #ff6ac1);" vertex="1" parent="nRAyySOtik3wZMy7_4Og-400">
          <mxGeometry x="20" y="5" width="20" height="21" as="geometry" />
        </mxCell>
        <mxCell id="nRAyySOtik3wZMy7_4Og-403" value="&lt;font style=&quot;color: rgb(0, 0, 0);&quot;&gt;Durchführung II&lt;/font&gt;" style="swimlane;strokeColor=#999999;swimlaneFillColor=#FFFFFF;fillColor=#ffffff;fontColor=#008CFF;fontStyle=0;childLayout=stackLayout;horizontal=1;startSize=30;horizontalStack=0;resizeParent=1;resizeParentMax=0;resizeLast=0;collapsible=0;marginBottom=0;whiteSpace=wrap;html=1;fontSize=17;rounded=0;glass=0;shadow=0;strokeWidth=2;align=left;" vertex="1" parent="nRAyySOtik3wZMy7_4Og-252">
          <mxGeometry x="1450" y="10" width="210" height="460" as="geometry" />
        </mxCell>
        <mxCell id="nRAyySOtik3wZMy7_4Og-404" value="" style="swimlane;startSize=0;rounded=1;" vertex="1" parent="nRAyySOtik3wZMy7_4Og-403">
          <mxGeometry y="30" width="210" height="100" as="geometry">
            <mxRectangle y="360" width="210" height="40" as="alternateBounds" />
          </mxGeometry>
        </mxCell>
        <mxCell id="nRAyySOtik3wZMy7_4Og-405" value="" style="whiteSpace=wrap;html=1;aspect=fixed;" vertex="1" parent="nRAyySOtik3wZMy7_4Og-404">
          <mxGeometry x="20" y="10" width="20" height="20" as="geometry" />
        </mxCell>
        <mxCell id="nRAyySOtik3wZMy7_4Og-406" value="Verknüpfung Frontend/Backend" style="rounded=0;whiteSpace=wrap;html=1;align=left;" vertex="1" parent="nRAyySOtik3wZMy7_4Og-404">
          <mxGeometry x="50" y="10" width="150" height="30" as="geometry" />
        </mxCell>
        <mxCell id="nRAyySOtik3wZMy7_4Og-407" value="" style="rounded=0;whiteSpace=wrap;html=1;" vertex="1" parent="nRAyySOtik3wZMy7_4Og-404">
          <mxGeometry x="80" y="60" width="120" height="30" as="geometry" />
        </mxCell>
        <mxCell id="nRAyySOtik3wZMy7_4Og-408" value="" style="ellipse;whiteSpace=wrap;html=1;aspect=fixed;" vertex="1" parent="nRAyySOtik3wZMy7_4Og-404">
          <mxGeometry x="180" y="65" width="20" height="20" as="geometry" />
        </mxCell>
        <mxCell id="nRAyySOtik3wZMy7_4Og-409" value="" style="ellipse;whiteSpace=wrap;html=1;aspect=fixed;" vertex="1" parent="nRAyySOtik3wZMy7_4Og-404">
          <mxGeometry x="150" y="65" width="20" height="20" as="geometry" />
        </mxCell>
        <mxCell id="nRAyySOtik3wZMy7_4Og-410" value="" style="rounded=0;whiteSpace=wrap;html=1;" vertex="1" parent="nRAyySOtik3wZMy7_4Og-404">
          <mxGeometry x="10" y="45" width="40" height="20" as="geometry" />
        </mxCell>
        <mxCell id="nRAyySOtik3wZMy7_4Og-411" value="" style="html=1;verticalLabelPosition=bottom;align=center;labelBackgroundColor=#ffffff;verticalAlign=top;strokeWidth=2;strokeColor=#0080F0;shadow=0;dashed=0;shape=mxgraph.ios7.icons.eye;" vertex="1" parent="nRAyySOtik3wZMy7_4Og-404">
          <mxGeometry x="15" y="47.950000000000045" width="30" height="14.1" as="geometry" />
        </mxCell>
        <mxCell id="nRAyySOtik3wZMy7_4Og-412" value="" style="swimlane;startSize=0;rounded=1;" vertex="1" parent="nRAyySOtik3wZMy7_4Og-403">
          <mxGeometry y="130" width="210" height="100" as="geometry">
            <mxRectangle y="360" width="210" height="40" as="alternateBounds" />
          </mxGeometry>
        </mxCell>
        <mxCell id="nRAyySOtik3wZMy7_4Og-413" value="" style="whiteSpace=wrap;html=1;aspect=fixed;" vertex="1" parent="nRAyySOtik3wZMy7_4Og-412">
          <mxGeometry x="20" y="10" width="20" height="20" as="geometry" />
        </mxCell>
        <mxCell id="nRAyySOtik3wZMy7_4Og-414" value="Verknüpfung Backend/Datenbank" style="rounded=0;whiteSpace=wrap;html=1;align=left;" vertex="1" parent="nRAyySOtik3wZMy7_4Og-412">
          <mxGeometry x="50" y="10" width="150" height="30" as="geometry" />
        </mxCell>
        <mxCell id="nRAyySOtik3wZMy7_4Og-415" value="" style="rounded=0;whiteSpace=wrap;html=1;" vertex="1" parent="nRAyySOtik3wZMy7_4Og-412">
          <mxGeometry x="80" y="60" width="120" height="30" as="geometry" />
        </mxCell>
        <mxCell id="nRAyySOtik3wZMy7_4Og-416" value="" style="ellipse;whiteSpace=wrap;html=1;aspect=fixed;" vertex="1" parent="nRAyySOtik3wZMy7_4Og-412">
          <mxGeometry x="180" y="65" width="20" height="20" as="geometry" />
        </mxCell>
        <mxCell id="nRAyySOtik3wZMy7_4Og-417" value="" style="ellipse;whiteSpace=wrap;html=1;aspect=fixed;" vertex="1" parent="nRAyySOtik3wZMy7_4Og-412">
          <mxGeometry x="150" y="65" width="20" height="20" as="geometry" />
        </mxCell>
        <mxCell id="nRAyySOtik3wZMy7_4Og-418" value="" style="ellipse;whiteSpace=wrap;html=1;aspect=fixed;" vertex="1" parent="nRAyySOtik3wZMy7_4Og-412">
          <mxGeometry x="120" y="65" width="20" height="20" as="geometry" />
        </mxCell>
        <mxCell id="nRAyySOtik3wZMy7_4Og-419" value="" style="rounded=0;whiteSpace=wrap;html=1;" vertex="1" parent="nRAyySOtik3wZMy7_4Og-412">
          <mxGeometry x="10" y="45" width="40" height="20" as="geometry" />
        </mxCell>
        <mxCell id="nRAyySOtik3wZMy7_4Og-420" value="" style="html=1;verticalLabelPosition=bottom;align=center;labelBackgroundColor=#ffffff;verticalAlign=top;strokeWidth=2;strokeColor=#0080F0;shadow=0;dashed=0;shape=mxgraph.ios7.icons.eye;" vertex="1" parent="nRAyySOtik3wZMy7_4Og-412">
          <mxGeometry x="15" y="47.950000000000045" width="30" height="14.1" as="geometry" />
        </mxCell>
        <mxCell id="nRAyySOtik3wZMy7_4Og-421" value="" style="swimlane;startSize=0;rounded=1;" vertex="1" parent="nRAyySOtik3wZMy7_4Og-403">
          <mxGeometry y="230" width="210" height="100" as="geometry">
            <mxRectangle y="360" width="210" height="40" as="alternateBounds" />
          </mxGeometry>
        </mxCell>
        <mxCell id="nRAyySOtik3wZMy7_4Og-422" value="" style="whiteSpace=wrap;html=1;aspect=fixed;" vertex="1" parent="nRAyySOtik3wZMy7_4Og-421">
          <mxGeometry x="20" y="10" width="20" height="20" as="geometry" />
        </mxCell>
        <mxCell id="nRAyySOtik3wZMy7_4Og-423" value="Verknüpfung php/python" style="rounded=0;whiteSpace=wrap;html=1;align=left;" vertex="1" parent="nRAyySOtik3wZMy7_4Og-421">
          <mxGeometry x="50" y="10" width="150" height="20" as="geometry" />
        </mxCell>
        <mxCell id="nRAyySOtik3wZMy7_4Og-424" value="" style="rounded=0;whiteSpace=wrap;html=1;" vertex="1" parent="nRAyySOtik3wZMy7_4Og-421">
          <mxGeometry x="80" y="60" width="120" height="30" as="geometry" />
        </mxCell>
        <mxCell id="nRAyySOtik3wZMy7_4Og-425" value="" style="ellipse;whiteSpace=wrap;html=1;aspect=fixed;" vertex="1" parent="nRAyySOtik3wZMy7_4Og-421">
          <mxGeometry x="180" y="65" width="20" height="20" as="geometry" />
        </mxCell>
        <mxCell id="nRAyySOtik3wZMy7_4Og-426" value="" style="ellipse;whiteSpace=wrap;html=1;aspect=fixed;" vertex="1" parent="nRAyySOtik3wZMy7_4Og-421">
          <mxGeometry x="160" y="65" width="20" height="20" as="geometry" />
        </mxCell>
        <mxCell id="nRAyySOtik3wZMy7_4Og-427" value="" style="ellipse;whiteSpace=wrap;html=1;aspect=fixed;" vertex="1" parent="nRAyySOtik3wZMy7_4Og-421">
          <mxGeometry x="140" y="65" width="20" height="20" as="geometry" />
        </mxCell>
        <mxCell id="nRAyySOtik3wZMy7_4Og-428" value="" style="ellipse;whiteSpace=wrap;html=1;aspect=fixed;" vertex="1" parent="nRAyySOtik3wZMy7_4Og-421">
          <mxGeometry x="120" y="65" width="20" height="20" as="geometry" />
        </mxCell>
        <mxCell id="nRAyySOtik3wZMy7_4Og-429" value="" style="ellipse;whiteSpace=wrap;html=1;aspect=fixed;" vertex="1" parent="nRAyySOtik3wZMy7_4Og-421">
          <mxGeometry x="100" y="65" width="20" height="20" as="geometry" />
        </mxCell>
        <mxCell id="nRAyySOtik3wZMy7_4Og-430" value="" style="ellipse;whiteSpace=wrap;html=1;aspect=fixed;" vertex="1" parent="nRAyySOtik3wZMy7_4Og-421">
          <mxGeometry x="80" y="65" width="20" height="20" as="geometry" />
        </mxCell>
        <mxCell id="nRAyySOtik3wZMy7_4Og-431" value="" style="rounded=0;whiteSpace=wrap;html=1;" vertex="1" parent="nRAyySOtik3wZMy7_4Og-421">
          <mxGeometry x="10" y="45" width="40" height="20" as="geometry" />
        </mxCell>
        <mxCell id="nRAyySOtik3wZMy7_4Og-432" value="" style="html=1;verticalLabelPosition=bottom;align=center;labelBackgroundColor=#ffffff;verticalAlign=top;strokeWidth=2;strokeColor=#0080F0;shadow=0;dashed=0;shape=mxgraph.ios7.icons.eye;" vertex="1" parent="nRAyySOtik3wZMy7_4Og-421">
          <mxGeometry x="15" y="47.950000000000045" width="30" height="14.1" as="geometry" />
        </mxCell>
        <mxCell id="nRAyySOtik3wZMy7_4Og-433" value="" style="swimlane;startSize=0;rounded=1;" vertex="1" parent="nRAyySOtik3wZMy7_4Og-403">
          <mxGeometry y="330" width="210" height="100" as="geometry">
            <mxRectangle y="360" width="210" height="40" as="alternateBounds" />
          </mxGeometry>
        </mxCell>
        <mxCell id="nRAyySOtik3wZMy7_4Og-434" value="" style="whiteSpace=wrap;html=1;aspect=fixed;" vertex="1" parent="nRAyySOtik3wZMy7_4Og-433">
          <mxGeometry x="20" y="10" width="20" height="20" as="geometry" />
        </mxCell>
        <mxCell id="nRAyySOtik3wZMy7_4Og-435" value="Erstellung Klassen python" style="rounded=0;whiteSpace=wrap;html=1;align=left;" vertex="1" parent="nRAyySOtik3wZMy7_4Og-433">
          <mxGeometry x="50" y="10" width="150" height="20" as="geometry" />
        </mxCell>
        <mxCell id="nRAyySOtik3wZMy7_4Og-436" value="" style="rounded=0;whiteSpace=wrap;html=1;" vertex="1" parent="nRAyySOtik3wZMy7_4Og-433">
          <mxGeometry x="80" y="60" width="120" height="30" as="geometry" />
        </mxCell>
        <mxCell id="nRAyySOtik3wZMy7_4Og-437" value="" style="ellipse;whiteSpace=wrap;html=1;aspect=fixed;" vertex="1" parent="nRAyySOtik3wZMy7_4Og-433">
          <mxGeometry x="180" y="65" width="20" height="20" as="geometry" />
        </mxCell>
        <mxCell id="nRAyySOtik3wZMy7_4Og-438" value="" style="ellipse;whiteSpace=wrap;html=1;aspect=fixed;" vertex="1" parent="nRAyySOtik3wZMy7_4Og-433">
          <mxGeometry x="150" y="65" width="20" height="20" as="geometry" />
        </mxCell>
        <mxCell id="nRAyySOtik3wZMy7_4Og-439" value="" style="ellipse;whiteSpace=wrap;html=1;aspect=fixed;" vertex="1" parent="nRAyySOtik3wZMy7_4Og-433">
          <mxGeometry x="120" y="65" width="20" height="20" as="geometry" />
        </mxCell>
        <mxCell id="nRAyySOtik3wZMy7_4Og-440" value="" style="ellipse;whiteSpace=wrap;html=1;aspect=fixed;" vertex="1" parent="nRAyySOtik3wZMy7_4Og-433">
          <mxGeometry x="90" y="65" width="20" height="20" as="geometry" />
        </mxCell>
        <mxCell id="nRAyySOtik3wZMy7_4Og-441" value="" style="rounded=0;whiteSpace=wrap;html=1;" vertex="1" parent="nRAyySOtik3wZMy7_4Og-433">
          <mxGeometry x="10" y="45" width="40" height="20" as="geometry" />
        </mxCell>
        <mxCell id="nRAyySOtik3wZMy7_4Og-442" value="" style="html=1;verticalLabelPosition=bottom;align=center;labelBackgroundColor=#ffffff;verticalAlign=top;strokeWidth=2;strokeColor=#0080F0;shadow=0;dashed=0;shape=mxgraph.ios7.icons.eye;" vertex="1" parent="nRAyySOtik3wZMy7_4Og-433">
          <mxGeometry x="15" y="47.950000000000045" width="30" height="14.1" as="geometry" />
        </mxCell>
        <mxCell id="nRAyySOtik3wZMy7_4Og-443" value="" style="swimlane;startSize=0;rounded=1;" vertex="1" parent="nRAyySOtik3wZMy7_4Og-403">
          <mxGeometry y="430" width="210" height="30" as="geometry">
            <mxRectangle x="640" y="560" width="210" height="40" as="alternateBounds" />
          </mxGeometry>
        </mxCell>
        <mxCell id="nRAyySOtik3wZMy7_4Og-444" value="" style="html=1;verticalLabelPosition=bottom;labelBackgroundColor=#ffffff;verticalAlign=top;shadow=0;dashed=0;strokeWidth=2;shape=mxgraph.ios7.misc.add;sketch=0;fontColor=#9933FF;strokeColor=light-dark(#c8c8c8, #ff6ac1);" vertex="1" parent="nRAyySOtik3wZMy7_4Og-443">
          <mxGeometry x="20" y="4" width="20" height="21" as="geometry" />
        </mxCell>
        <mxCell id="nRAyySOtik3wZMy7_4Og-495" value="Neues Feld hinzufügen" style="rounded=0;whiteSpace=wrap;html=1;align=left;fontColor=light-dark(#c8c8c8, #ededed);strokeColor=light-dark(#c8c8c8, #ededed);" vertex="1" parent="nRAyySOtik3wZMy7_4Og-443">
          <mxGeometry x="50" y="5" width="150" height="20" as="geometry" />
        </mxCell>
        <mxCell id="nRAyySOtik3wZMy7_4Og-446" value="" style="swimlane;strokeColor=light-dark(#c8c8c8, #6a6a6a);swimlaneFillColor=#FFFFFF;fillColor=#ffffff;fontColor=#008CFF;fontStyle=0;childLayout=stackLayout;horizontal=1;startSize=0;horizontalStack=0;resizeParent=1;resizeParentMax=0;resizeLast=0;collapsible=0;marginBottom=0;whiteSpace=wrap;html=1;fontSize=17;rounded=0;glass=0;shadow=0;strokeWidth=2;align=left;" vertex="1" parent="nRAyySOtik3wZMy7_4Og-252">
          <mxGeometry x="1690" y="10" width="210" height="70" as="geometry" />
        </mxCell>
        <mxCell id="nRAyySOtik3wZMy7_4Og-499" value="" style="swimlane;startSize=0;strokeColor=light-dark(#c8c8c8, #ededed);" vertex="1" parent="nRAyySOtik3wZMy7_4Og-446">
          <mxGeometry width="210" height="70" as="geometry">
            <mxRectangle width="210" height="40" as="alternateBounds" />
          </mxGeometry>
        </mxCell>
        <mxCell id="nRAyySOtik3wZMy7_4Og-496" value="Neue Liste hinzufügen" style="rounded=0;whiteSpace=wrap;html=1;align=right;fontColor=light-dark(#c8c8c8, #ededed);strokeColor=light-dark(#c8c8c8, #ededed);fontSize=17;" vertex="1" parent="nRAyySOtik3wZMy7_4Og-499">
          <mxGeometry y="5" width="210" height="20" as="geometry" />
        </mxCell>
        <mxCell id="nRAyySOtik3wZMy7_4Og-498" value="" style="html=1;verticalLabelPosition=bottom;labelBackgroundColor=#ffffff;verticalAlign=top;shadow=0;dashed=0;strokeWidth=2;shape=mxgraph.ios7.misc.add;sketch=0;fontColor=#9933FF;strokeColor=light-dark(#c8c8c8, #ff6ac1);" vertex="1" parent="nRAyySOtik3wZMy7_4Og-499">
          <mxGeometry x="10" y="4.5" width="20" height="21" as="geometry" />
        </mxCell>
        <mxCell id="nRAyySOtik3wZMy7_4Og-523" value="" style="verticalLabelPosition=bottom;shadow=0;dashed=0;align=center;html=1;verticalAlign=top;strokeWidth=1;shape=mxgraph.mockup.forms.horSlider;strokeColor=#000000;sliderStyle=basic;sliderPos=100;handleStyle=circle;fillColor2=#ddeeff;direction=north;" vertex="1" parent="nRAyySOtik3wZMy7_4Og-252">
          <mxGeometry x="940" y="40" width="10" height="640" as="geometry" />
        </mxCell>
        <mxCell id="nRAyySOtik3wZMy7_4Og-506" value="" style="verticalLabelPosition=bottom;shadow=0;dashed=0;align=center;html=1;verticalAlign=top;strokeWidth=1;shape=mxgraph.mockup.forms.splitter;strokeColor=#999999;" vertex="1" parent="nRAyySOtik3wZMy7_4Og-2">
          <mxGeometry y="1000" width="1930" height="30" as="geometry" />
        </mxCell>
        <mxCell id="nRAyySOtik3wZMy7_4Og-507" value="&lt;b&gt;&lt;font style=&quot;font-size: 24px;&quot;&gt;TaskMaster&lt;/font&gt;&lt;/b&gt;" style="rounded=0;whiteSpace=wrap;html=1;align=center;strokeColor=none;" vertex="1" parent="nRAyySOtik3wZMy7_4Og-2">
          <mxGeometry x="10" y="120" width="130" height="30" as="geometry" />
        </mxCell>
        <mxCell id="nRAyySOtik3wZMy7_4Og-5" value="" style="swimlane;shape=mxgraph.bootstrap.anchor;strokeColor=#999999;fillColor=#ffffff;fontColor=#666666;childLayout=stackLayout;horizontal=0;startSize=0;horizontalStack=1;resizeParent=1;resizeParentMax=0;resizeLast=0;collapsible=0;marginBottom=0;whiteSpace=wrap;html=1;" vertex="1" parent="nRAyySOtik3wZMy7_4Og-2">
          <mxGeometry x="1460" y="180" width="460" height="30" as="geometry" />
        </mxCell>
        <mxCell id="nRAyySOtik3wZMy7_4Og-511" value="" style="swimlane;startSize=0;" vertex="1" parent="nRAyySOtik3wZMy7_4Og-5">
          <mxGeometry width="160" height="30" as="geometry">
            <mxRectangle width="50" height="30" as="alternateBounds" />
          </mxGeometry>
        </mxCell>
        <mxCell id="nRAyySOtik3wZMy7_4Og-513" value="SP" style="ellipse;whiteSpace=wrap;html=1;aspect=fixed;strokeColor=light-dark(#ffffff, #ededed);fillColor=light-dark(#150e71, #ededed);fontColor=light-dark(#ffffff, #ededed);" vertex="1" parent="nRAyySOtik3wZMy7_4Og-511">
          <mxGeometry x="120" y="5" width="20" height="20" as="geometry" />
        </mxCell>
        <mxCell id="nRAyySOtik3wZMy7_4Og-515" value="MK" style="ellipse;whiteSpace=wrap;html=1;aspect=fixed;strokeColor=light-dark(#ffffff, #ededed);fillColor=#FF00FF;fontColor=#FFFFFF;" vertex="1" parent="nRAyySOtik3wZMy7_4Og-511">
          <mxGeometry x="80" y="5" width="20" height="20" as="geometry" />
        </mxCell>
        <mxCell id="nRAyySOtik3wZMy7_4Og-516" value="SK" style="ellipse;whiteSpace=wrap;html=1;aspect=fixed;fontStyle=0;strokeColor=#FFFFFF;fillColor=light-dark(#6ba0e6, #ededed);fontColor=light-dark(#ffffff, #ededed);" vertex="1" parent="nRAyySOtik3wZMy7_4Og-511">
          <mxGeometry x="60" y="5" width="20" height="20" as="geometry" />
        </mxCell>
        <mxCell id="nRAyySOtik3wZMy7_4Og-517" value="LH" style="ellipse;whiteSpace=wrap;html=1;aspect=fixed;fillColor=light-dark(#ec1313, #ededed);strokeColor=light-dark(#ffffff, #ededed);fontColor=light-dark(#ffffff, #ededed);" vertex="1" parent="nRAyySOtik3wZMy7_4Og-511">
          <mxGeometry x="40" y="5" width="20" height="20" as="geometry" />
        </mxCell>
        <mxCell id="nRAyySOtik3wZMy7_4Og-518" value="PK" style="ellipse;whiteSpace=wrap;html=1;aspect=fixed;fillColor=#FF99CC;strokeColor=light-dark(#ffffff, #ededed);fontColor=light-dark(#ffffff, #ededed);" vertex="1" parent="nRAyySOtik3wZMy7_4Og-511">
          <mxGeometry x="20" y="5" width="20" height="20" as="geometry" />
        </mxCell>
        <mxCell id="nRAyySOtik3wZMy7_4Og-514" value="LK" style="ellipse;whiteSpace=wrap;html=1;aspect=fixed;fontColor=light-dark(#000000,#EDEDED);strokeColor=#FFFFFF;fillColor=#FFFF00;" vertex="1" parent="nRAyySOtik3wZMy7_4Og-511">
          <mxGeometry x="100" y="5" width="20" height="20" as="geometry" />
        </mxCell>
        <mxCell id="nRAyySOtik3wZMy7_4Og-508" value="SW" style="ellipse;whiteSpace=wrap;html=1;aspect=fixed;fontStyle=1;fillColor=#009900;strokeColor=light-dark(#ffffff, #ededed);fontColor=light-dark(#ffffff, #ededed);" vertex="1" parent="nRAyySOtik3wZMy7_4Og-511">
          <mxGeometry x="140" y="5" width="20" height="20" as="geometry" />
        </mxCell>
        <mxCell id="nRAyySOtik3wZMy7_4Og-8" value="Filter" style="text;strokeColor=inherit;align=center;verticalAlign=middle;spacingLeft=10;spacingRight=10;overflow=hidden;points=[[0,0.5],[1,0.5]];portConstraint=eastwest;rotatable=0;whiteSpace=wrap;html=1;fillColor=inherit;fontColor=inherit;fontSize=17;" vertex="1" parent="nRAyySOtik3wZMy7_4Og-5">
          <mxGeometry x="160" width="60" height="30" as="geometry" />
        </mxCell>
        <mxCell id="nRAyySOtik3wZMy7_4Og-9" value="Sichtbarkeit" style="text;strokeColor=inherit;align=center;verticalAlign=middle;spacingLeft=10;spacingRight=10;overflow=hidden;points=[[0,0.5],[1,0.5]];portConstraint=eastwest;rotatable=0;whiteSpace=wrap;html=1;fillColor=inherit;fontColor=inherit;fontSize=17;" vertex="1" parent="nRAyySOtik3wZMy7_4Og-5">
          <mxGeometry x="220" width="110" height="30" as="geometry" />
        </mxCell>
        <mxCell id="nRAyySOtik3wZMy7_4Og-10" value="Invite" style="text;strokeColor=inherit;align=center;verticalAlign=middle;spacingLeft=10;spacingRight=10;overflow=hidden;points=[[0,0.5],[1,0.5]];portConstraint=eastwest;rotatable=0;whiteSpace=wrap;html=1;fillColor=inherit;fontColor=inherit;fontSize=17;" vertex="1" parent="nRAyySOtik3wZMy7_4Og-5">
          <mxGeometry x="330" width="90" height="30" as="geometry" />
        </mxCell>
        <mxCell id="nRAyySOtik3wZMy7_4Og-11" value="..." style="text;strokeColor=inherit;align=center;verticalAlign=middle;spacingLeft=10;spacingRight=10;overflow=hidden;points=[[0,0.5],[1,0.5]];portConstraint=eastwest;rotatable=0;whiteSpace=wrap;html=1;fillColor=inherit;fontColor=inherit;fontSize=17;" vertex="1" parent="nRAyySOtik3wZMy7_4Og-5">
          <mxGeometry x="420" width="40" height="30" as="geometry" />
        </mxCell>
        <mxCell id="nRAyySOtik3wZMy7_4Og-530" value="HB" style="ellipse;whiteSpace=wrap;html=1;aspect=fixed;fillColor=#0000FF;strokeColor=light-dark(#FFFFFF,#FFFFFF);fontColor=#FFFFFF;" vertex="1" parent="nRAyySOtik3wZMy7_4Og-2">
          <mxGeometry x="1460" y="185" width="20" height="20" as="geometry" />
        </mxCell>
      </root>
    </mxGraphModel>
  </diagram>
</mxfile>
